<?xml version="1.0" encoding="utf-8"?>
<svg xmlns="http://www.w3.org/2000/svg" style="margin: auto; background: none; display: block; shape-rendering: auto;" width="1010" height="125" preserveAspectRatio="xMidYMid">
<style type="text/css">
  text {
    text-anchor: middle; font-size: 50px; opacity: 0;
  }
</style>
<g style="transform-origin: 505px 62.5px 0px; transform: scale(0.833333);">
<g transform="translate(505,62.5)">
  <g transform="translate(0,0)"><g class="path" style="transform: scale(0.91); transform-origin: -559.217px -4.7731px 0px; animation: 1s linear -0.44s infinite normal forwards running breath-8de00140-8eed-41ef-80bc-c067af11bb5d;"><path d="M33.36-40.38L33.36-40.38Q34.26-42 35.94-42L35.94-42L46.92-42L46.92-42Q47.58-42 48.06-41.52L48.06-41.52L48.06-41.52Q48.54-41.04 48.54-40.38L48.54-40.38L48.54-1.62L48.54-1.62Q48.54-0.96 48.06-0.48L48.06-0.48L48.06-0.48Q47.58 0 46.92 0L46.92 0L36.06 0L36.06 0Q35.40 0 34.92-0.48L34.92-0.48L34.92-0.48Q34.44-0.96 34.44-1.62L34.44-1.62L34.44-20.22L30.06-11.58L30.06-11.58Q29.88-11.16 29.22-10.62L29.22-10.62L29.22-10.62Q28.56-10.08 27.54-10.08L27.54-10.08L23.46-10.08L23.46-10.08Q22.44-10.08 21.78-10.62L21.78-10.62L21.78-10.62Q21.12-11.16 20.94-11.58L20.94-11.58L16.56-20.22L16.56-1.62L16.56-1.62Q16.56-0.96 16.08-0.48L16.08-0.48L16.08-0.48Q15.60 0 14.94 0L14.94 0L4.08 0L4.08 0Q3.42 0 2.94-0.48L2.94-0.48L2.94-0.48Q2.46-0.96 2.46-1.62L2.46-1.62L2.46-40.38L2.46-40.38Q2.46-41.04 2.94-41.52L2.94-41.52L2.94-41.52Q3.42-42 4.08-42L4.08-42L15.06-42L15.06-42Q16.74-42 17.64-40.38L17.64-40.38L25.50-25.98L33.36-40.38" fill="#ff727d" stroke="none" stroke-width="none" transform="translate(-584.7166595458984,16.226895926339278)" style="fill: rgb(255, 211, 145);"></path></g><g class="path" style="transform: scale(0.91); transform-origin: -508.217px -4.7731px 0px; animation: 1s linear -0.188571s infinite normal forwards running breath-8de00140-8eed-41ef-80bc-c067af11bb5d;"><path d="M84.66-29.70L84.66-12.30L95.52-12.30L95.52-12.30Q96.18-12.30 96.66-11.82L96.66-11.82L96.66-11.82Q97.14-11.34 97.14-10.68L97.14-10.68L97.14-1.62L97.14-1.62Q97.14-0.96 96.66-0.48L96.66-0.48L96.66-0.48Q96.18 0 95.52 0L95.52 0L57.48 0L57.48 0Q56.82 0 56.34-0.48L56.34-0.48L56.34-0.48Q55.86-0.96 55.86-1.62L55.86-1.62L55.86-10.68L55.86-10.68Q55.86-11.34 56.34-11.82L56.34-11.82L56.34-11.82Q56.82-12.30 57.48-12.30L57.48-12.30L68.46-12.30L68.46-29.70L57.48-29.70L57.48-29.70Q56.82-29.70 56.34-30.18L56.34-30.18L56.34-30.18Q55.86-30.66 55.86-31.32L55.86-31.32L55.86-40.38L55.86-40.38Q55.86-41.04 56.34-41.52L56.34-41.52L56.34-41.52Q56.82-42 57.48-42L57.48-42L95.52-42L95.52-42Q96.18-42 96.66-41.52L96.66-41.52L96.66-41.52Q97.14-41.04 97.14-40.38L97.14-40.38L97.14-31.32L97.14-31.32Q97.14-30.66 96.66-30.18L96.66-30.18L96.66-30.18Q96.18-29.70 95.52-29.70L95.52-29.70L84.66-29.70" fill="#ff727d" stroke="none" stroke-width="none" transform="translate(-584.7166595458984,16.226895926339278)" style="fill: rgb(96, 231, 243);"></path></g><g class="path" style="transform: scale(0.91); transform-origin: -456.707px -4.7731px 0px; animation: 1s linear -0.502857s infinite normal forwards running breath-8de00140-8eed-41ef-80bc-c067af11bb5d;"><path d="M121.98-16.20L121.98-16.20Q121.98-13.74 123.63-12.42L123.63-12.42L123.63-12.42Q125.28-11.10 128.10-11.10L128.10-11.10L128.10-11.10Q130.62-11.10 131.82-11.94L131.82-11.94L131.82-11.94Q133.02-12.78 133.86-14.46L133.86-14.46L133.86-14.46Q134.64-16.02 135.96-16.02L135.96-16.02L148.92-16.02L148.92-16.02Q149.46-16.02 149.85-15.63L149.85-15.63L149.85-15.63Q150.24-15.24 150.24-14.70L150.24-14.70L150.24-14.70Q150.24-11.04 147.78-7.53L147.78-7.53L147.78-7.53Q145.32-4.02 140.31-1.71L140.31-1.71L140.31-1.71Q135.30 0.60 128.10 0.60L128.10 0.60L128.10 0.60Q121.68 0.60 116.67-1.35L116.67-1.35L116.67-1.35Q111.66-3.30 108.72-7.35L108.72-7.35L108.72-7.35Q105.78-11.40 105.78-17.46L105.78-17.46L105.78-24.54L105.78-24.54Q105.78-30.60 108.72-34.65L108.72-34.65L108.72-34.65Q111.66-38.70 116.67-40.65L116.67-40.65L116.67-40.65Q121.68-42.60 128.10-42.60L128.10-42.60L128.10-42.60Q135.30-42.60 140.31-40.29L140.31-40.29L140.31-40.29Q145.32-37.98 147.78-34.47L147.78-34.47L147.78-34.47Q150.24-30.96 150.24-27.30L150.24-27.30L150.24-27.30Q150.24-26.76 149.85-26.37L149.85-26.37L149.85-26.37Q149.46-25.98 148.92-25.98L148.92-25.98L135.96-25.98L135.96-25.98Q134.64-25.98 133.86-27.54L133.86-27.54L133.86-27.54Q133.02-29.22 131.82-30.06L131.82-30.06L131.82-30.06Q130.62-30.90 128.10-30.90L128.10-30.90L128.10-30.90Q125.28-30.90 123.63-29.58L123.63-29.58L123.63-29.58Q121.98-28.26 121.98-25.80L121.98-25.80L121.98-16.20" fill="#ff727d" stroke="none" stroke-width="none" transform="translate(-584.7166595458984,16.226895926339278)" style="fill: rgb(96, 231, 243);"></path></g><g class="path" style="transform: scale(0.91); transform-origin: -406.217px -4.7731px 0px; animation: 1s linear -0.597143s infinite normal forwards running breath-8de00140-8eed-41ef-80bc-c067af11bb5d;"><path d="M198.48-42L198.48-42Q199.14-42 199.62-41.52L199.62-41.52L199.62-41.52Q200.10-41.04 200.10-40.38L200.10-40.38L200.10-1.62L200.10-1.62Q200.10-0.96 199.62-0.48L199.62-0.48L199.62-0.48Q199.14 0 198.48 0L198.48 0L186.12 0L186.12 0Q185.46 0 184.98-0.48L184.98-0.48L184.98-0.48Q184.50-0.96 184.50-1.62L184.50-1.62L184.50-14.40L172.50-14.40L172.50-1.62L172.50-1.62Q172.50-0.96 172.02-0.48L172.02-0.48L172.02-0.48Q171.54 0 170.88 0L170.88 0L158.52 0L158.52 0Q157.86 0 157.38-0.45L157.38-0.45L157.38-0.45Q156.90-0.90 156.90-1.62L156.90-1.62L156.90-40.38L156.90-40.38Q156.90-41.04 157.38-41.52L157.38-41.52L157.38-41.52Q157.86-42 158.52-42L158.52-42L170.88-42L170.88-42Q171.54-42 172.02-41.52L172.02-41.52L172.02-41.52Q172.50-41.04 172.50-40.38L172.50-40.38L172.50-28.08L184.50-28.08L184.50-40.38L184.50-40.38Q184.50-41.04 184.98-41.52L184.98-41.52L184.98-41.52Q185.46-42 186.12-42L186.12-42L198.48-42" fill="#ff727d" stroke="none" stroke-width="none" transform="translate(-584.7166595458984,16.226895926339278)" style="fill: rgb(255, 211, 145);"></path></g><g class="path" style="transform: scale(0.91); transform-origin: -354.737px -4.7731px 0px; animation: 1s linear -0.345714s infinite normal forwards running breath-8de00140-8eed-41ef-80bc-c067af11bb5d;"><path d="M248.94-11.70L248.94-11.70Q249.60-11.70 250.08-11.22L250.08-11.22L250.08-11.22Q250.56-10.74 250.56-10.08L250.56-10.08L250.56-1.62L250.56-1.62Q250.56-0.96 250.08-0.48L250.08-0.48L250.08-0.48Q249.60 0 248.94 0L248.94 0L211.02 0L211.02 0Q210.36 0 209.88-0.48L209.88-0.48L209.88-0.48Q209.40-0.96 209.40-1.62L209.40-1.62L209.40-40.38L209.40-40.38Q209.40-41.04 209.88-41.52L209.88-41.52L209.88-41.52Q210.36-42 211.02-42L211.02-42L248.34-42L248.34-42Q249-42 249.48-41.52L249.48-41.52L249.48-41.52Q249.96-41.04 249.96-40.38L249.96-40.38L249.96-31.92L249.96-31.92Q249.96-31.26 249.48-30.78L249.48-30.78L249.48-30.78Q249-30.30 248.34-30.30L248.34-30.30L225-30.30L225-26.52L245.04-26.52L245.04-26.52Q245.70-26.52 246.18-26.04L246.18-26.04L246.18-26.04Q246.66-25.56 246.66-24.90L246.66-24.90L246.66-17.10L246.66-17.10Q246.66-16.44 246.18-15.96L246.18-15.96L246.18-15.96Q245.70-15.48 245.04-15.48L245.04-15.48L225-15.48L225-11.70L248.94-11.70" fill="#ff727d" stroke="none" stroke-width="none" transform="translate(-584.7166595458984,16.226895926339278)" style="fill: rgb(96, 231, 243);"></path></g><g class="path" style="transform: scale(0.91); transform-origin: -302.177px -4.7731px 0px; animation: 1s linear -0.377143s infinite normal forwards running breath-8de00140-8eed-41ef-80bc-c067af11bb5d;"><path d="M300.06-12.30L300.06-12.30Q300.72-12.30 301.20-11.82L301.20-11.82L301.20-11.82Q301.68-11.34 301.68-10.68L301.68-10.68L301.68-1.62L301.68-1.62Q301.68-0.96 301.20-0.48L301.20-0.48L301.20-0.48Q300.72 0 300.06 0L300.06 0L265.02 0L265.02 0Q264.36 0 263.88-0.48L263.88-0.48L263.88-0.48Q263.40-0.96 263.40-1.62L263.40-1.62L263.40-40.38L263.40-40.38Q263.40-41.04 263.88-41.52L263.88-41.52L263.88-41.52Q264.36-42 265.02-42L265.02-42L277.98-42L277.98-42Q278.64-42 279.12-41.52L279.12-41.52L279.12-41.52Q279.60-41.04 279.60-40.38L279.60-40.38L279.60-12.30L300.06-12.30" fill="#ff727d" stroke="none" stroke-width="none" transform="translate(-584.7166595458984,16.226895926339278)" style="fill: rgb(144, 255, 181);"></path></g><g class="path" style="transform: scale(0.91); transform-origin: -252.737px -4.7731px 0px; animation: 1s linear -0.534286s infinite normal forwards running breath-8de00140-8eed-41ef-80bc-c067af11bb5d;"><path d="M350.94-11.70L350.94-11.70Q351.60-11.70 352.08-11.22L352.08-11.22L352.08-11.22Q352.56-10.74 352.56-10.08L352.56-10.08L352.56-1.62L352.56-1.62Q352.56-0.96 352.08-0.48L352.08-0.48L352.08-0.48Q351.60 0 350.94 0L350.94 0L313.02 0L313.02 0Q312.36 0 311.88-0.48L311.88-0.48L311.88-0.48Q311.40-0.96 311.40-1.62L311.40-1.62L311.40-40.38L311.40-40.38Q311.40-41.04 311.88-41.52L311.88-41.52L311.88-41.52Q312.36-42 313.02-42L313.02-42L350.34-42L350.34-42Q351-42 351.48-41.52L351.48-41.52L351.48-41.52Q351.96-41.04 351.96-40.38L351.96-40.38L351.96-31.92L351.96-31.92Q351.96-31.26 351.48-30.78L351.48-30.78L351.48-30.78Q351-30.30 350.34-30.30L350.34-30.30L327-30.30L327-26.52L347.04-26.52L347.04-26.52Q347.70-26.52 348.18-26.04L348.18-26.04L348.18-26.04Q348.66-25.56 348.66-24.90L348.66-24.90L348.66-17.10L348.66-17.10Q348.66-16.44 348.18-15.96L348.18-15.96L348.18-15.96Q347.70-15.48 347.04-15.48L347.04-15.48L327-15.48L327-11.70L350.94-11.70" fill="#ff727d" stroke="none" stroke-width="none" transform="translate(-584.7166595458984,16.226895926339278)" style="fill: rgb(144, 255, 181);"></path></g><g class="path" style="transform: scale(0.91); transform-origin: -151.217px -4.7731px 0px; animation: 1s linear -0.565714s infinite normal forwards running breath-8de00140-8eed-41ef-80bc-c067af11bb5d;"><path d="M441.36-40.38L441.36-40.38Q442.26-42 443.94-42L443.94-42L454.92-42L454.92-42Q455.58-42 456.06-41.52L456.06-41.52L456.06-41.52Q456.54-41.04 456.54-40.38L456.54-40.38L456.54-1.62L456.54-1.62Q456.54-0.96 456.06-0.48L456.06-0.48L456.06-0.48Q455.58 0 454.92 0L454.92 0L444.06 0L444.06 0Q443.40 0 442.92-0.48L442.92-0.48L442.92-0.48Q442.44-0.96 442.44-1.62L442.44-1.62L442.44-20.22L438.06-11.58L438.06-11.58Q437.88-11.16 437.22-10.62L437.22-10.62L437.22-10.62Q436.56-10.08 435.54-10.08L435.54-10.08L431.46-10.08L431.46-10.08Q430.44-10.08 429.78-10.62L429.78-10.62L429.78-10.62Q429.12-11.16 428.94-11.58L428.94-11.58L424.56-20.22L424.56-1.62L424.56-1.62Q424.56-0.96 424.08-0.48L424.08-0.48L424.08-0.48Q423.60 0 422.94 0L422.94 0L412.08 0L412.08 0Q411.42 0 410.94-0.48L410.94-0.48L410.94-0.48Q410.46-0.96 410.46-1.62L410.46-1.62L410.46-40.38L410.46-40.38Q410.46-41.04 410.94-41.52L410.94-41.52L410.94-41.52Q411.42-42 412.08-42L412.08-42L423.06-42L423.06-42Q424.74-42 425.64-40.38L425.64-40.38L433.50-25.98L441.36-40.38" fill="#ff727d" stroke="none" stroke-width="none" transform="translate(-584.7166595458984,16.226895926339278)" style="fill: rgb(255, 251, 208);"></path></g><g class="path" style="transform: scale(0.91); transform-origin: -100.037px -4.7731px 0px; animation: 1s linear -0.22s infinite normal forwards running breath-8de00140-8eed-41ef-80bc-c067af11bb5d;"><path d="M477.36-6.24L475.86-2.04L475.86-2.04Q475.08 0 473.16 0L473.16 0L461.82 0L461.82 0Q461.28 0 460.89-0.39L460.89-0.39L460.89-0.39Q460.50-0.78 460.50-1.32L460.50-1.32L460.56-1.68L473.64-40.02L473.64-40.02Q473.88-40.80 474.54-41.40L474.54-41.40L474.54-41.40Q475.20-42 476.34-42L476.34-42L493.02-42L493.02-42Q494.16-42 494.82-41.40L494.82-41.40L494.82-41.40Q495.48-40.80 495.72-40.02L495.72-40.02L508.80-1.68L508.86-1.32L508.86-1.32Q508.86-0.78 508.47-0.39L508.47-0.39L508.47-0.39Q508.08 0 507.54 0L507.54 0L496.20 0L496.20 0Q494.28 0 493.50-2.04L493.50-2.04L492-6.24L477.36-6.24zM488.94-17.94L484.68-30.42L480.42-17.94L488.94-17.94" fill="#ff727d" stroke="none" stroke-width="none" transform="translate(-584.7166595458984,16.226895926339278)" style="fill: rgb(144, 255, 181);"></path></g><g class="path" style="transform: scale(0.91); transform-origin: -47.2667px -4.7731px 0px; animation: 1s linear -0.0628571s infinite normal forwards running breath-8de00140-8eed-41ef-80bc-c067af11bb5d;"><path d="M559.32-1.86L559.32-1.86Q559.44-1.62 559.44-1.32L559.44-1.32L559.44-1.32Q559.44-0.78 559.05-0.39L559.05-0.39L559.05-0.39Q558.66 0 558.12 0L558.12 0L544.50 0L544.50 0Q543.66 0 542.97-0.42L542.97-0.42L542.97-0.42Q542.28-0.84 541.98-1.50L541.98-1.50L536.70-13.38L531.66-13.38L531.66-1.62L531.66-1.62Q531.66-0.96 531.18-0.48L531.18-0.48L531.18-0.48Q530.70 0 530.04 0L530.04 0L517.08 0L517.08 0Q516.42 0 515.94-0.48L515.94-0.48L515.94-0.48Q515.46-0.96 515.46-1.62L515.46-1.62L515.46-40.38L515.46-40.38Q515.46-41.04 515.94-41.52L515.94-41.52L515.94-41.52Q516.42-42 517.08-42L517.08-42L540.42-42L540.42-42Q545.82-42 549.87-40.26L549.87-40.26L549.87-40.26Q553.92-38.52 556.08-35.22L556.08-35.22L556.08-35.22Q558.24-31.92 558.24-27.48L558.24-27.48L558.24-27.48Q558.24-19.32 551.94-15.66L551.94-15.66L559.32-1.86zM531.66-24.48L539.16-24.48L539.16-24.48Q540.48-24.48 541.20-25.35L541.20-25.35L541.20-25.35Q541.92-26.22 541.92-27.54L541.92-27.54L541.92-27.54Q541.92-28.86 541.23-29.85L541.23-29.85L541.23-29.85Q540.54-30.84 539.16-30.84L539.16-30.84L531.66-30.84L531.66-24.48" fill="#ff727d" stroke="none" stroke-width="none" transform="translate(-584.7166595458984,16.226895926339278)" style="fill: rgb(144, 255, 181);"></path></g><g class="path" style="transform: scale(0.91); transform-origin: 1.78333px -4.7731px 0px; animation: 1s linear -0.251429s infinite normal forwards running breath-8de00140-8eed-41ef-80bc-c067af11bb5d;"><path d="M594.66-29.70L594.66-12.30L605.52-12.30L605.52-12.30Q606.18-12.30 606.66-11.82L606.66-11.82L606.66-11.82Q607.14-11.34 607.14-10.68L607.14-10.68L607.14-1.62L607.14-1.62Q607.14-0.96 606.66-0.48L606.66-0.48L606.66-0.48Q606.18 0 605.52 0L605.52 0L567.48 0L567.48 0Q566.82 0 566.34-0.48L566.34-0.48L566.34-0.48Q565.86-0.96 565.86-1.62L565.86-1.62L565.86-10.68L565.86-10.68Q565.86-11.34 566.34-11.82L566.34-11.82L566.34-11.82Q566.82-12.30 567.48-12.30L567.48-12.30L578.46-12.30L578.46-29.70L567.48-29.70L567.48-29.70Q566.82-29.70 566.34-30.18L566.34-30.18L566.34-30.18Q565.86-30.66 565.86-31.32L565.86-31.32L565.86-40.38L565.86-40.38Q565.86-41.04 566.34-41.52L566.34-41.52L566.34-41.52Q566.82-42 567.48-42L567.48-42L605.52-42L605.52-42Q606.18-42 606.66-41.52L606.66-41.52L606.66-41.52Q607.14-41.04 607.14-40.38L607.14-40.38L607.14-31.32L607.14-31.32Q607.14-30.66 606.66-30.18L606.66-30.18L606.66-30.18Q606.18-29.70 605.52-29.70L605.52-29.70L594.66-29.70" fill="#ff727d" stroke="none" stroke-width="none" transform="translate(-584.7166595458984,16.226895926339278)" style="fill: rgb(255, 251, 208);"></path></g><g class="path" style="transform: scale(0.91); transform-origin: 52.9633px -4.7731px 0px; animation: 1s linear -0.408571s infinite normal forwards running breath-8de00140-8eed-41ef-80bc-c067af11bb5d;"><path d="M630.36-6.24L628.86-2.04L628.86-2.04Q628.08 0 626.16 0L626.16 0L614.82 0L614.82 0Q614.28 0 613.89-0.39L613.89-0.39L613.89-0.39Q613.50-0.78 613.50-1.32L613.50-1.32L613.56-1.68L626.64-40.02L626.64-40.02Q626.88-40.80 627.54-41.40L627.54-41.40L627.54-41.40Q628.20-42 629.34-42L629.34-42L646.02-42L646.02-42Q647.16-42 647.82-41.40L647.82-41.40L647.82-41.40Q648.48-40.80 648.72-40.02L648.72-40.02L661.80-1.68L661.86-1.32L661.86-1.32Q661.86-0.78 661.47-0.39L661.47-0.39L661.47-0.39Q661.08 0 660.54 0L660.54 0L649.20 0L649.20 0Q647.28 0 646.50-2.04L646.50-2.04L645-6.24L630.36-6.24zM641.94-17.94L637.68-30.42L633.42-17.94L641.94-17.94" fill="#ff727d" stroke="none" stroke-width="none" transform="translate(-584.7166595458984,16.226895926339278)" style="fill: rgb(255, 251, 208);"></path></g><g class="path" style="transform: scale(0.91); transform-origin: 154.633px -4.7731px 0px; animation: 1s linear 0s infinite normal forwards running breath-8de00140-8eed-41ef-80bc-c067af11bb5d;"><path d="M742.80-26.76L742.80-26.76Q749.40-26.04 753.39-24.42L753.39-24.42L753.39-24.42Q757.38-22.80 759.18-20.16L759.18-20.16L759.18-20.16Q760.98-17.52 760.98-13.56L760.98-13.56L760.98-13.56Q760.98-9.24 758.19-6.03L758.19-6.03L758.19-6.03Q755.40-2.82 750.48-1.11L750.48-1.11L750.48-1.11Q745.56 0.60 739.26 0.60L739.26 0.60L739.26 0.60Q732.24 0.60 727.38-1.14L727.38-1.14L727.38-1.14Q722.52-2.88 720.12-5.79L720.12-5.79L720.12-5.79Q717.72-8.70 717.72-12.18L717.72-12.18L717.72-12.18Q717.72-12.78 718.11-13.14L718.11-13.14L718.11-13.14Q718.50-13.50 719.10-13.50L719.10-13.50L731.40-13.50L731.40-13.50Q732.66-13.50 733.44-12.72L733.44-12.72L733.44-12.72Q734.46-11.76 735.72-11.43L735.72-11.43L735.72-11.43Q736.98-11.10 739.26-11.10L739.26-11.10L739.26-11.10Q744.96-11.10 744.96-12.84L744.96-12.84L744.96-12.84Q744.96-13.56 744.21-14.07L744.21-14.07L744.21-14.07Q743.46-14.58 741.57-14.97L741.57-14.97L741.57-14.97Q739.68-15.36 736.02-15.78L736.02-15.78L736.02-15.78Q727.80-16.74 723.42-19.89L723.42-19.89L723.42-19.89Q719.04-23.04 719.04-28.80L719.04-28.80L719.04-28.80Q719.04-32.88 721.50-36L721.50-36L721.50-36Q723.96-39.12 728.49-40.86L728.49-40.86L728.49-40.86Q733.02-42.60 739.02-42.60L739.02-42.60L739.02-42.60Q745.26-42.60 749.94-40.65L749.94-40.65L749.94-40.65Q754.62-38.70 757.08-35.82L757.08-35.82L757.08-35.82Q759.54-32.94 759.54-30.18L759.54-30.18L759.54-30.18Q759.54-29.58 759.15-29.22L759.15-29.22L759.15-29.22Q758.76-28.86 758.10-28.86L758.10-28.86L745.20-28.86L745.20-28.86Q744.18-28.86 743.34-29.58L743.34-29.58L743.34-29.58Q742.68-30.18 741.78-30.54L741.78-30.54L741.78-30.54Q740.88-30.90 739.02-30.90L739.02-30.90L739.02-30.90Q735-30.90 735-29.22L735-29.22L735-29.22Q735-28.32 736.56-27.81L736.56-27.81L736.56-27.81Q738.12-27.30 742.80-26.76L742.80-26.76" fill="#ff727d" stroke="none" stroke-width="none" transform="translate(-584.7166595458984,16.226895926339278)" style="fill: rgb(255, 114, 125);"></path></g><g class="path" style="transform: scale(0.91); transform-origin: 206.263px -4.7731px 0px; animation: 1s linear -0.0314286s infinite normal forwards running breath-8de00140-8eed-41ef-80bc-c067af11bb5d;"><path d="M809.94-11.70L809.94-11.70Q810.60-11.70 811.08-11.22L811.08-11.22L811.08-11.22Q811.56-10.74 811.56-10.08L811.56-10.08L811.56-1.62L811.56-1.62Q811.56-0.96 811.08-0.48L811.08-0.48L811.08-0.48Q810.60 0 809.94 0L809.94 0L772.02 0L772.02 0Q771.36 0 770.88-0.48L770.88-0.48L770.88-0.48Q770.40-0.96 770.40-1.62L770.40-1.62L770.40-40.38L770.40-40.38Q770.40-41.04 770.88-41.52L770.88-41.52L770.88-41.52Q771.36-42 772.02-42L772.02-42L809.34-42L809.34-42Q810-42 810.48-41.52L810.48-41.52L810.48-41.52Q810.96-41.04 810.96-40.38L810.96-40.38L810.96-31.92L810.96-31.92Q810.96-31.26 810.48-30.78L810.48-30.78L810.48-30.78Q810-30.30 809.34-30.30L809.34-30.30L786-30.30L786-26.52L806.04-26.52L806.04-26.52Q806.70-26.52 807.18-26.04L807.18-26.04L807.18-26.04Q807.66-25.56 807.66-24.90L807.66-24.90L807.66-17.10L807.66-17.10Q807.66-16.44 807.18-15.96L807.18-15.96L807.18-15.96Q806.70-15.48 806.04-15.48L806.04-15.48L786-15.48L786-11.70L809.94-11.70" fill="#ff727d" stroke="none" stroke-width="none" transform="translate(-584.7166595458984,16.226895926339278)" style="fill: rgb(96, 231, 243);"></path></g><g class="path" style="transform: scale(0.91); transform-origin: 258.733px -4.7731px 0px; animation: 1s linear -0.0942857s infinite normal forwards running breath-8de00140-8eed-41ef-80bc-c067af11bb5d;"><path d="M865.32-1.86L865.32-1.86Q865.44-1.62 865.44-1.32L865.44-1.32L865.44-1.32Q865.44-0.78 865.05-0.39L865.05-0.39L865.05-0.39Q864.66 0 864.12 0L864.12 0L850.50 0L850.50 0Q849.66 0 848.97-0.42L848.97-0.42L848.97-0.42Q848.28-0.84 847.98-1.50L847.98-1.50L842.70-13.38L837.66-13.38L837.66-1.62L837.66-1.62Q837.66-0.96 837.18-0.48L837.18-0.48L837.18-0.48Q836.70 0 836.04 0L836.04 0L823.08 0L823.08 0Q822.42 0 821.94-0.48L821.94-0.48L821.94-0.48Q821.46-0.96 821.46-1.62L821.46-1.62L821.46-40.38L821.46-40.38Q821.46-41.04 821.94-41.52L821.94-41.52L821.94-41.52Q822.42-42 823.08-42L823.08-42L846.42-42L846.42-42Q851.82-42 855.87-40.26L855.87-40.26L855.87-40.26Q859.92-38.52 862.08-35.22L862.08-35.22L862.08-35.22Q864.24-31.92 864.24-27.48L864.24-27.48L864.24-27.48Q864.24-19.32 857.94-15.66L857.94-15.66L865.32-1.86zM837.66-24.48L845.16-24.48L845.16-24.48Q846.48-24.48 847.20-25.35L847.20-25.35L847.20-25.35Q847.92-26.22 847.92-27.54L847.92-27.54L847.92-27.54Q847.92-28.86 847.23-29.85L847.23-29.85L847.23-29.85Q846.54-30.84 845.16-30.84L845.16-30.84L837.66-30.84L837.66-24.48" fill="#ff727d" stroke="none" stroke-width="none" transform="translate(-584.7166595458984,16.226895926339278)" style="fill: rgb(255, 251, 208);"></path></g><g class="path" style="transform: scale(0.91); transform-origin: 309.733px -4.7731px 0px; animation: 1s linear -0.282857s infinite normal forwards running breath-8de00140-8eed-41ef-80bc-c067af11bb5d;"><path d="M916.32-1.86L916.32-1.86Q916.44-1.62 916.44-1.32L916.44-1.32L916.44-1.32Q916.44-0.78 916.05-0.39L916.05-0.39L916.05-0.39Q915.66 0 915.12 0L915.12 0L901.50 0L901.50 0Q900.66 0 899.97-0.42L899.97-0.42L899.97-0.42Q899.28-0.84 898.98-1.50L898.98-1.50L893.70-13.38L888.66-13.38L888.66-1.62L888.66-1.62Q888.66-0.96 888.18-0.48L888.18-0.48L888.18-0.48Q887.70 0 887.04 0L887.04 0L874.08 0L874.08 0Q873.42 0 872.94-0.48L872.94-0.48L872.94-0.48Q872.46-0.96 872.46-1.62L872.46-1.62L872.46-40.38L872.46-40.38Q872.46-41.04 872.94-41.52L872.94-41.52L872.94-41.52Q873.42-42 874.08-42L874.08-42L897.42-42L897.42-42Q902.82-42 906.87-40.26L906.87-40.26L906.87-40.26Q910.92-38.52 913.08-35.22L913.08-35.22L913.08-35.22Q915.24-31.92 915.24-27.48L915.24-27.48L915.24-27.48Q915.24-19.32 908.94-15.66L908.94-15.66L916.32-1.86zM888.66-24.48L896.16-24.48L896.16-24.48Q897.48-24.48 898.20-25.35L898.20-25.35L898.20-25.35Q898.92-26.22 898.92-27.54L898.92-27.54L898.92-27.54Q898.92-28.86 898.23-29.85L898.23-29.85L898.23-29.85Q897.54-30.84 896.16-30.84L896.16-30.84L888.66-30.84L888.66-24.48" fill="#ff727d" stroke="none" stroke-width="none" transform="translate(-584.7166595458984,16.226895926339278)" style="fill: rgb(255, 211, 145);"></path></g><g class="path" style="transform: scale(0.91); transform-origin: 358.963px -4.7731px 0px; animation: 1s linear -0.628571s infinite normal forwards running breath-8de00140-8eed-41ef-80bc-c067af11bb5d;"><path d="M936.36-6.24L934.86-2.04L934.86-2.04Q934.08 0 932.16 0L932.16 0L920.82 0L920.82 0Q920.28 0 919.89-0.39L919.89-0.39L919.89-0.39Q919.50-0.78 919.50-1.32L919.50-1.32L919.56-1.68L932.64-40.02L932.64-40.02Q932.88-40.80 933.54-41.40L933.54-41.40L933.54-41.40Q934.20-42 935.34-42L935.34-42L952.02-42L952.02-42Q953.16-42 953.82-41.40L953.82-41.40L953.82-41.40Q954.48-40.80 954.72-40.02L954.72-40.02L967.80-1.68L967.86-1.32L967.86-1.32Q967.86-0.78 967.47-0.39L967.47-0.39L967.47-0.39Q967.08 0 966.54 0L966.54 0L955.20 0L955.20 0Q953.28 0 952.50-2.04L952.50-2.04L951-6.24L936.36-6.24zM947.94-17.94L943.68-30.42L939.42-17.94L947.94-17.94" fill="#ff727d" stroke="none" stroke-width="none" transform="translate(-584.7166595458984,16.226895926339278)" style="fill: rgb(255, 114, 125);"></path></g><g class="path" style="transform: scale(0.91); transform-origin: 413.113px -4.7731px 0px; animation: 1s linear -0.125714s infinite normal forwards running breath-8de00140-8eed-41ef-80bc-c067af11bb5d;"><path d="M1000.62-42L1000.62-42Q1006.26-42 1010.46-40.08L1010.46-40.08L1010.46-40.08Q1014.66-38.16 1016.88-34.86L1016.88-34.86L1016.88-34.86Q1019.10-31.56 1019.10-27.48L1019.10-27.48L1019.10-27.48Q1019.10-20.76 1014.90-16.95L1014.90-16.95L1014.90-16.95Q1010.70-13.14 1000.62-13.14L1000.62-13.14L992.70-13.14L992.70-1.62L992.70-1.62Q992.70-0.96 992.22-0.48L992.22-0.48L992.22-0.48Q991.74 0 991.08 0L991.08 0L978.18 0L978.18 0Q977.52 0 977.04-0.48L977.04-0.48L977.04-0.48Q976.56-0.96 976.56-1.62L976.56-1.62L976.56-40.38L976.56-40.38Q976.56-41.04 977.04-41.52L977.04-41.52L977.04-41.52Q977.52-42 978.18-42L978.18-42L1000.62-42zM992.76-24.24L1000.38-24.24L1000.38-24.24Q1001.82-24.24 1002.66-25.11L1002.66-25.11L1002.66-25.11Q1003.50-25.98 1003.50-27.42L1003.50-27.42L1003.50-27.42Q1003.50-28.92 1002.66-29.88L1002.66-29.88L1002.66-29.88Q1001.82-30.84 1000.38-30.84L1000.38-30.84L992.76-30.84L992.76-24.24" fill="#ff727d" stroke="none" stroke-width="none" transform="translate(-584.7166595458984,16.226895926339278)" style="fill: rgb(255, 211, 145);"></path></g><g class="path" style="transform: scale(0.91); transform-origin: 460.783px -4.7731px 0px; animation: 1s linear -0.471429s infinite normal forwards running breath-8de00140-8eed-41ef-80bc-c067af11bb5d;"><path d="M1053.66-29.70L1053.66-12.30L1064.52-12.30L1064.52-12.30Q1065.18-12.30 1065.66-11.82L1065.66-11.82L1065.66-11.82Q1066.14-11.34 1066.14-10.68L1066.14-10.68L1066.14-1.62L1066.14-1.62Q1066.14-0.96 1065.66-0.48L1065.66-0.48L1065.66-0.48Q1065.18 0 1064.52 0L1064.52 0L1026.48 0L1026.48 0Q1025.82 0 1025.34-0.48L1025.34-0.48L1025.34-0.48Q1024.86-0.96 1024.86-1.62L1024.86-1.62L1024.86-10.68L1024.86-10.68Q1024.86-11.34 1025.34-11.82L1025.34-11.82L1025.34-11.82Q1025.82-12.30 1026.48-12.30L1026.48-12.30L1037.46-12.30L1037.46-29.70L1026.48-29.70L1026.48-29.70Q1025.82-29.70 1025.34-30.18L1025.34-30.18L1025.34-30.18Q1024.86-30.66 1024.86-31.32L1024.86-31.32L1024.86-40.38L1024.86-40.38Q1024.86-41.04 1025.34-41.52L1025.34-41.52L1025.34-41.52Q1025.82-42 1026.48-42L1026.48-42L1064.52-42L1064.52-42Q1065.18-42 1065.66-41.52L1065.66-41.52L1065.66-41.52Q1066.14-41.04 1066.14-40.38L1066.14-40.38L1066.14-31.32L1066.14-31.32Q1066.14-30.66 1065.66-30.18L1065.66-30.18L1065.66-30.18Q1065.18-29.70 1064.52-29.70L1064.52-29.70L1053.66-29.70" fill="#ff727d" stroke="none" stroke-width="none" transform="translate(-584.7166595458984,16.226895926339278)" style="fill: rgb(255, 114, 125);"></path></g><g class="path" style="transform: scale(0.91); transform-origin: 512.293px -4.7731px 0px; animation: 1s linear -0.157143s infinite normal forwards running breath-8de00140-8eed-41ef-80bc-c067af11bb5d;"><path d="M1090.98-16.20L1090.98-16.20Q1090.98-13.74 1092.63-12.42L1092.63-12.42L1092.63-12.42Q1094.28-11.10 1097.10-11.10L1097.10-11.10L1097.10-11.10Q1099.62-11.10 1100.82-11.94L1100.82-11.94L1100.82-11.94Q1102.02-12.78 1102.86-14.46L1102.86-14.46L1102.86-14.46Q1103.64-16.02 1104.96-16.02L1104.96-16.02L1117.92-16.02L1117.92-16.02Q1118.46-16.02 1118.85-15.63L1118.85-15.63L1118.85-15.63Q1119.24-15.24 1119.24-14.70L1119.24-14.70L1119.24-14.70Q1119.24-11.04 1116.78-7.53L1116.78-7.53L1116.78-7.53Q1114.32-4.02 1109.31-1.71L1109.31-1.71L1109.31-1.71Q1104.30 0.60 1097.10 0.60L1097.10 0.60L1097.10 0.60Q1090.68 0.60 1085.67-1.35L1085.67-1.35L1085.67-1.35Q1080.66-3.30 1077.72-7.35L1077.72-7.35L1077.72-7.35Q1074.78-11.40 1074.78-17.46L1074.78-17.46L1074.78-24.54L1074.78-24.54Q1074.78-30.60 1077.72-34.65L1077.72-34.65L1077.72-34.65Q1080.66-38.70 1085.67-40.65L1085.67-40.65L1085.67-40.65Q1090.68-42.60 1097.10-42.60L1097.10-42.60L1097.10-42.60Q1104.30-42.60 1109.31-40.29L1109.31-40.29L1109.31-40.29Q1114.32-37.98 1116.78-34.47L1116.78-34.47L1116.78-34.47Q1119.24-30.96 1119.24-27.30L1119.24-27.30L1119.24-27.30Q1119.24-26.76 1118.85-26.37L1118.85-26.37L1118.85-26.37Q1118.46-25.98 1117.92-25.98L1117.92-25.98L1104.96-25.98L1104.96-25.98Q1103.64-25.98 1102.86-27.54L1102.86-27.54L1102.86-27.54Q1102.02-29.22 1100.82-30.06L1100.82-30.06L1100.82-30.06Q1099.62-30.90 1097.10-30.90L1097.10-30.90L1097.10-30.90Q1094.28-30.90 1092.63-29.58L1092.63-29.58L1092.63-29.58Q1090.98-28.26 1090.98-25.80L1090.98-25.80L1090.98-16.20" fill="#ff727d" stroke="none" stroke-width="none" transform="translate(-584.7166595458984,16.226895926339278)" style="fill: rgb(255, 114, 125);"></path></g><g class="path" style="transform: scale(0.91); transform-origin: 562.963px -4.7731px 0px; animation: 1s linear -0.314286s infinite normal forwards running breath-8de00140-8eed-41ef-80bc-c067af11bb5d;"><path d="M1140.36-6.24L1138.86-2.04L1138.86-2.04Q1138.08 0 1136.16 0L1136.16 0L1124.82 0L1124.82 0Q1124.28 0 1123.89-0.39L1123.89-0.39L1123.89-0.39Q1123.50-0.78 1123.50-1.32L1123.50-1.32L1123.56-1.68L1136.64-40.02L1136.64-40.02Q1136.88-40.80 1137.54-41.40L1137.54-41.40L1137.54-41.40Q1138.20-42 1139.34-42L1139.34-42L1156.02-42L1156.02-42Q1157.16-42 1157.82-41.40L1157.82-41.40L1157.82-41.40Q1158.48-40.80 1158.72-40.02L1158.72-40.02L1171.80-1.68L1171.86-1.32L1171.86-1.32Q1171.86-0.78 1171.47-0.39L1171.47-0.39L1171.47-0.39Q1171.08 0 1170.54 0L1170.54 0L1159.20 0L1159.20 0Q1157.28 0 1156.50-2.04L1156.50-2.04L1155-6.24L1140.36-6.24zM1151.94-17.94L1147.68-30.42L1143.42-17.94L1151.94-17.94" fill="#ff727d" stroke="none" stroke-width="none" transform="translate(-584.7166595458984,16.226895926339278)" style="fill: rgb(255, 114, 125);"></path></g></g>
</g>
</g>
<style id="breath-8de00140-8eed-41ef-80bc-c067af11bb5d" data-anikit="">@keyframes breath-8de00140-8eed-41ef-80bc-c067af11bb5d
{
  0% {
    animation-timing-function: cubic-bezier(0.9647,0.2413,-0.0705,0.7911);
    transform: scale(0.9099999999999999);
  }
  51% {
    animation-timing-function: cubic-bezier(0.9226,0.2631,-0.0308,0.7628);
    transform: scale(1.02994);
  }
  100% {
    transform: scale(0.9099999999999999);
  }
}</style></svg>