<?xml version="1.0" encoding="utf-8"?>
<svg xmlns="http://www.w3.org/2000/svg" style="margin: auto; display: block; shape-rendering: auto; background: none;" width="971" height="125" preserveAspectRatio="xMidYMid">
<style type="text/css">
  text {
    text-anchor: middle; font-size: 60px; opacity: 0;
  }
</style>
<g style="transform-origin: 485.5px 62.5px 0px; transform: scale(0.75);">
<g transform="translate(485.5,62.5)">
  <g transform="translate(0,0)"><g class="path" style="transform: scale(1); transform-origin: -531.528px 10.4229px 0px; animation: 2s linear -1.30693s infinite normal forwards running beat-f3664b4e-bacf-43c4-9de5-cb1cd4faa484;"><path d="M50.20 0L50.20-23.59L53.01-28.91L53.01 0L50.20 0" fill="#ff727d" stroke="none" stroke-width="none" transform="translate(-583.1333465576172,24.877896166508744)" style="fill: rgb(255, 114, 125);"></path></g><g class="path" style="transform: scale(1); transform-origin: -525.908px 5.0329px 0px; animation: 2s linear -1.29386s infinite normal forwards running beat-f3664b4e-bacf-43c4-9de5-cb1cd4faa484;"><path d="M55.82 0L55.82-34.38L58.63-39.69L58.63 0L55.82 0" fill="#ff727d" stroke="none" stroke-width="none" transform="translate(-583.1333465576172,24.877896166508744)" style="fill: rgb(255, 211, 145);"></path></g><g class="path" style="transform: scale(1); transform-origin: -520.278px -0.297104px 0px; animation: 2s linear -1.28079s infinite normal forwards running beat-f3664b4e-bacf-43c4-9de5-cb1cd4faa484;"><path d="M61.45 0L61.45-45L64.26-50.35L64.26 0L61.45 0" fill="#ff727d" stroke="none" stroke-width="none" transform="translate(-583.1333465576172,24.877896166508744)" style="fill: rgb(255, 251, 208);"></path></g><g class="path" style="transform: scale(1); transform-origin: -530.883px -19.9271px 0px; animation: 2s linear -1.26772s infinite normal forwards running beat-f3664b4e-bacf-43c4-9de5-cb1cd4faa484;"><path d="M63.52-64.69L42.58-24.92L40.98-27.85L60.35-64.69L63.52-64.69" fill="#ff727d" stroke="none" stroke-width="none" transform="translate(-583.1333465576172,24.877896166508744)" style="fill: rgb(144, 255, 181);"></path></g><g class="path" style="transform: scale(1); transform-origin: -535.708px -22.9921px 0px; animation: 2s linear -1.25465s infinite normal forwards running beat-f3664b4e-bacf-43c4-9de5-cb1cd4faa484;"><path d="M57.15-64.69L39.34-31.05L37.70-34.02L53.95-64.69L57.15-64.69" fill="#ff727d" stroke="none" stroke-width="none" transform="translate(-583.1333465576172,24.877896166508744)" style="fill: rgb(96, 231, 243);"></path></g><g class="path" style="transform: scale(1); transform-origin: -561.218px 10.5829px 0px; animation: 2s linear -1.24158s infinite normal forwards running beat-f3664b4e-bacf-43c4-9de5-cb1cd4faa484;"><path d="M20.51 0L20.51-28.59L23.32-23.28L23.32 0L20.51 0" fill="#ff727d" stroke="none" stroke-width="none" transform="translate(-583.1333465576172,24.877896166508744)" style="fill: rgb(255, 114, 125);"></path></g><g class="path" style="transform: scale(1); transform-origin: -566.843px 5.2279px 0px; animation: 2s linear -1.22851s infinite normal forwards running beat-f3664b4e-bacf-43c4-9de5-cb1cd4faa484;"><path d="M14.88 0L14.88-39.30L17.70-33.98L17.70 0L14.88 0" fill="#ff727d" stroke="none" stroke-width="none" transform="translate(-583.1333465576172,24.877896166508744)" style="fill: rgb(255, 211, 145);"></path></g><g class="path" style="transform: scale(1); transform-origin: -572.468px -0.122105px 0px; animation: 2s linear -1.21545s infinite normal forwards running beat-f3664b4e-bacf-43c4-9de5-cb1cd4faa484;"><path d="M9.26 0L9.26-50L12.07-44.65L12.07 0L9.26 0" fill="#ff727d" stroke="none" stroke-width="none" transform="translate(-583.1333465576172,24.877896166508744)" style="fill: rgb(255, 251, 208);"></path></g><g class="path" style="transform: scale(1); transform-origin: -565.323px -7.46711px 0px; animation: 2s linear -1.20238s infinite normal forwards running beat-f3664b4e-bacf-43c4-9de5-cb1cd4faa484;"><path d="M6.80-64.69L31.99-16.88L28.83-16.88L6.45-59.34L6.45 0L3.63 0L3.63-64.69L6.80-64.69" fill="#ff727d" stroke="none" stroke-width="none" transform="translate(-583.1333465576172,24.877896166508744)" style="fill: rgb(144, 255, 181);"></path></g><g class="path" style="transform: scale(1); transform-origin: -558.953px -15.9071px 0px; animation: 2s linear -1.18931s infinite normal forwards running beat-f3664b4e-bacf-43c4-9de5-cb1cd4faa484;"><path d="M13.20-64.69L38.36-16.88L35.16-16.88L10-64.69L13.20-64.69" fill="#ff727d" stroke="none" stroke-width="none" transform="translate(-583.1333465576172,24.877896166508744)" style="fill: rgb(96, 231, 243);"></path></g><g class="path" style="transform: scale(1); transform-origin: -540.008px -7.46711px 0px; animation: 2s linear -1.17624s infinite normal forwards running beat-f3664b4e-bacf-43c4-9de5-cb1cd4faa484;"><path d="M67.07 0L67.07-59.34L44.69-16.88L41.48-16.88L16.37-64.69L19.53-64.69L43.13-19.84L66.68-64.69L69.88-64.69L69.88 0L67.07 0" fill="#ff727d" stroke="none" stroke-width="none" transform="translate(-583.1333465576172,24.877896166508744)" style="fill: rgb(255, 114, 125);"></path></g><g class="path" style="transform: scale(1); transform-origin: -487.548px -3.2471px 0px; animation: 2s linear -1.16317s infinite normal forwards running beat-f3664b4e-bacf-43c4-9de5-cb1cd4faa484;"><path d="M94.18 0L94.18-56.25L96.99-56.25L96.99 0L94.18 0" fill="#ff727d" stroke="none" stroke-width="none" transform="translate(-583.1333465576172,24.877896166508744)" style="fill: rgb(255, 211, 145);"></path></g><g class="path" style="transform: scale(1); transform-origin: -493.173px -3.2471px 0px; animation: 2s linear -1.1501s infinite normal forwards running beat-f3664b4e-bacf-43c4-9de5-cb1cd4faa484;"><path d="M88.55 0L88.55-56.25L91.37-56.25L91.37 0L88.55 0" fill="#ff727d" stroke="none" stroke-width="none" transform="translate(-583.1333465576172,24.877896166508744)" style="fill: rgb(255, 251, 208);"></path></g><g class="path" style="transform: scale(1); transform-origin: -498.798px -3.2471px 0px; animation: 2s linear -1.13703s infinite normal forwards running beat-f3664b4e-bacf-43c4-9de5-cb1cd4faa484;"><path d="M82.93 0L82.93-56.25L85.74-56.25L85.74 0L82.93 0" fill="#ff727d" stroke="none" stroke-width="none" transform="translate(-583.1333465576172,24.877896166508744)" style="fill: rgb(144, 255, 181);"></path></g><g class="path" style="transform: scale(1); transform-origin: -504.423px -3.2471px 0px; animation: 2s linear -1.12396s infinite normal forwards running beat-f3664b4e-bacf-43c4-9de5-cb1cd4faa484;"><path d="M77.30 0L77.30-56.25L80.12-56.25L80.12 0L77.30 0" fill="#ff727d" stroke="none" stroke-width="none" transform="translate(-583.1333465576172,24.877896166508744)" style="fill: rgb(96, 231, 243);"></path></g><g class="path" style="transform: scale(1); transform-origin: -450.868px -3.2471px 0px; animation: 2s linear -1.11089s infinite normal forwards running beat-f3664b4e-bacf-43c4-9de5-cb1cd4faa484;"><path d="M144.80-36.88L144.80-36.88L142.54-35.16L142.54-35.16Q139.14-39.38 133.79-39.38L133.79-39.38L133.79-39.38Q129.14-39.38 125.84-36.07L125.84-36.07L125.84-36.07Q122.54-32.77 122.54-28.13L122.54-28.13L122.54-28.13Q122.54-23.48 125.84-20.18L125.84-20.18L125.84-20.18Q129.14-16.88 133.79-16.88L133.79-16.88L133.79-16.88Q136.41-16.88 138.69-18.01L138.69-18.01L138.69-18.01Q140.98-19.14 142.58-21.13L142.58-21.13L144.77-19.30L144.77-19.30Q142.81-16.84 139.92-15.45L139.92-15.45L139.92-15.45Q137.03-14.06 133.79-14.06L133.79-14.06L133.79-14.06Q127.97-14.06 123.85-18.18L123.85-18.18L123.85-18.18Q119.73-22.30 119.73-28.13L119.73-28.13L119.73-28.13Q119.73-33.95 123.85-38.07L123.85-38.07L123.85-38.07Q127.97-42.19 133.79-42.19L133.79-42.19L133.79-42.19Q137.07-42.19 139.96-40.76L139.96-40.76L139.96-40.76Q142.85-39.34 144.80-36.88" fill="#ff727d" stroke="none" stroke-width="none" transform="translate(-583.1333465576172,24.877896166508744)" style="fill: rgb(255, 114, 125);"></path></g><g class="path" style="transform: scale(1); transform-origin: -451.493px -3.2471px 0px; animation: 2s linear -1.09782s infinite normal forwards running beat-f3664b4e-bacf-43c4-9de5-cb1cd4faa484;"><path d="M149.18-40.39L149.18-40.39L146.95-38.67L146.95-38.67Q144.61-41.64 141.15-43.32L141.15-43.32L141.15-43.32Q137.70-45 133.79-45L133.79-45L133.79-45Q126.80-45 121.86-40.04L121.86-40.04L121.86-40.04Q116.91-35.08 116.91-28.13L116.91-28.13L116.91-28.13Q116.91-21.17 121.86-16.21L121.86-16.21L121.86-16.21Q126.80-11.25 133.79-11.25L133.79-11.25L133.79-11.25Q137.70-11.25 141.17-12.95L141.17-12.95L141.17-12.95Q144.65-14.65 146.99-17.62L146.99-17.62L149.14-15.82L149.14-15.82Q146.41-12.38 142.38-10.41L142.38-10.41L142.38-10.41Q138.36-8.44 133.79-8.44L133.79-8.44L133.79-8.44Q128.44-8.44 123.91-11.07L123.91-11.07L123.91-11.07Q119.38-13.71 116.74-18.24L116.74-18.24L116.74-18.24Q114.10-22.77 114.10-28.13L114.10-28.13L114.10-28.13Q114.10-33.48 116.74-38.01L116.74-38.01L116.74-38.01Q119.38-42.54 123.91-45.18L123.91-45.18L123.91-45.18Q128.44-47.81 133.79-47.81L133.79-47.81L133.79-47.81Q138.36-47.81 142.40-45.84L142.40-45.84L142.40-45.84Q146.45-43.87 149.18-40.39" fill="#ff727d" stroke="none" stroke-width="none" transform="translate(-583.1333465576172,24.877896166508744)" style="fill: rgb(255, 211, 145);"></path></g><g class="path" style="transform: scale(1); transform-origin: -452.098px -3.2471px 0px; animation: 2s linear -1.08475s infinite normal forwards running beat-f3664b4e-bacf-43c4-9de5-cb1cd4faa484;"><path d="M153.59-43.91L153.59-43.91L151.41-42.15L151.41-42.15Q148.24-46.09 143.63-48.36L143.63-48.36L143.63-48.36Q139.02-50.63 133.79-50.63L133.79-50.63L133.79-50.63Q129.22-50.63 125.06-48.85L125.06-48.85L125.06-48.85Q120.90-47.07 117.87-44.04L117.87-44.04L117.87-44.04Q114.84-41.02 113.07-36.86L113.07-36.86L113.07-36.86Q111.29-32.70 111.29-28.13L111.29-28.13L111.29-28.13Q111.29-23.55 113.07-19.39L113.07-19.39L113.07-19.39Q114.84-15.23 117.87-12.21L117.87-12.21L117.87-12.21Q120.90-9.18 125.06-7.40L125.06-7.40L125.06-7.40Q129.22-5.63 133.79-5.63L133.79-5.63L133.79-5.63Q139.02-5.63 143.63-7.89L143.63-7.89L143.63-7.89Q148.24-10.16 151.41-14.10L151.41-14.10L153.52-12.27L153.52-12.27Q149.96-7.85 144.80-5.33L144.80-5.33L144.80-5.33Q139.65-2.81 133.79-2.81L133.79-2.81L133.79-2.81Q128.63-2.81 123.95-4.82L123.95-4.82L123.95-4.82Q119.26-6.84 115.88-10.21L115.88-10.21L115.88-10.21Q112.50-13.59 110.49-18.28L110.49-18.28L110.49-18.28Q108.48-22.97 108.48-28.13L108.48-28.13L108.48-28.13Q108.48-33.28 110.49-37.97L110.49-37.97L110.49-37.97Q112.50-42.66 115.88-46.04L115.88-46.04L115.88-46.04Q119.26-49.41 123.95-51.43L123.95-51.43L123.95-51.43Q128.63-53.44 133.79-53.44L133.79-53.44L133.79-53.44Q139.69-53.44 144.86-50.90L144.86-50.90L144.86-50.90Q150.04-48.36 153.59-43.91" fill="#ff727d" stroke="none" stroke-width="none" transform="translate(-583.1333465576172,24.877896166508744)" style="fill: rgb(255, 251, 208);"></path></g><g class="path" style="transform: scale(1); transform-origin: -452.723px -3.2471px 0px; animation: 2s linear -1.07168s infinite normal forwards running beat-f3664b4e-bacf-43c4-9de5-cb1cd4faa484;"><path d="M157.97-47.42L157.97-47.42L155.70-45.74L155.70-45.74Q151.76-50.63 146.04-53.44L146.04-53.44L146.04-53.44Q140.31-56.25 133.79-56.25L133.79-56.25L133.79-56.25Q128.09-56.25 122.87-54.02L122.87-54.02L122.87-54.02Q117.66-51.80 113.89-48.03L113.89-48.03L113.89-48.03Q110.12-44.26 107.89-39.04L107.89-39.04L107.89-39.04Q105.66-33.83 105.66-28.13L105.66-28.13L105.66-28.13Q105.66-22.42 107.89-17.21L107.89-17.21L107.89-17.21Q110.12-11.99 113.89-8.22L113.89-8.22L113.89-8.22Q117.66-4.45 122.87-2.23L122.87-2.23L122.87-2.23Q128.09 0 133.79 0L133.79 0L133.79 0Q140.31 0 146.04-2.81L146.04-2.81L146.04-2.81Q151.76-5.63 155.70-10.51L155.70-10.51L157.93-8.79L157.93-8.79Q153.59-3.40 147.29-0.29L147.29-0.29L147.29-0.29Q140.98 2.81 133.79 2.81L133.79 2.81L133.79 2.81Q127.50 2.81 121.78 0.35L121.78 0.35L121.78 0.35Q116.05-2.11 111.91-6.25L111.91-6.25L111.91-6.25Q107.77-10.39 105.31-16.11L105.31-16.11L105.31-16.11Q102.85-21.84 102.85-28.13L102.85-28.13L102.85-28.13Q102.85-34.41 105.31-40.14L105.31-40.14L105.31-40.14Q107.77-45.86 111.91-50L111.91-50L111.91-50Q116.05-54.14 121.78-56.60L121.78-56.60L121.78-56.60Q127.50-59.06 133.79-59.06L133.79-59.06L133.79-59.06Q140.98-59.06 147.30-55.96L147.30-55.96L147.30-55.96Q153.63-52.85 157.97-47.42" fill="#ff727d" stroke="none" stroke-width="none" transform="translate(-583.1333465576172,24.877896166508744)" style="fill: rgb(144, 255, 181);"></path></g><g class="path" style="transform: scale(1); transform-origin: -362.158px -3.2471px 0px; animation: 2s linear -1.05861s infinite normal forwards running beat-f3664b4e-bacf-43c4-9de5-cb1cd4faa484;"><path d="M219.57 0L219.57-56.25L222.38-56.25L222.38 0L219.57 0" fill="#ff727d" stroke="none" stroke-width="none" transform="translate(-583.1333465576172,24.877896166508744)" style="fill: rgb(96, 231, 243);"></path></g><g class="path" style="transform: scale(1); transform-origin: -418.448px -3.2471px 0px; animation: 2s linear -1.04554s infinite normal forwards running beat-f3664b4e-bacf-43c4-9de5-cb1cd4faa484;"><path d="M163.28 0L163.28-56.25L166.09-56.25L166.09 0L163.28 0" fill="#ff727d" stroke="none" stroke-width="none" transform="translate(-583.1333465576172,24.877896166508744)" style="fill: rgb(255, 114, 125);"></path></g><g class="path" style="transform: scale(1); transform-origin: -367.778px -3.2471px 0px; animation: 2s linear -1.03248s infinite normal forwards running beat-f3664b4e-bacf-43c4-9de5-cb1cd4faa484;"><path d="M213.95 0L213.95-56.25L216.76-56.25L216.76 0L213.95 0" fill="#ff727d" stroke="none" stroke-width="none" transform="translate(-583.1333465576172,24.877896166508744)" style="fill: rgb(255, 211, 145);"></path></g><g class="path" style="transform: scale(1); transform-origin: -373.408px -3.2471px 0px; animation: 2s linear -1.01941s infinite normal forwards running beat-f3664b4e-bacf-43c4-9de5-cb1cd4faa484;"><path d="M208.32 0L208.32-56.25L211.13-56.25L211.13 0L208.32 0" fill="#ff727d" stroke="none" stroke-width="none" transform="translate(-583.1333465576172,24.877896166508744)" style="fill: rgb(255, 251, 208);"></path></g><g class="path" style="transform: scale(1); transform-origin: -390.298px -3.2471px 0px; animation: 2s linear -1.00634s infinite normal forwards running beat-f3664b4e-bacf-43c4-9de5-cb1cd4faa484;"><path d="M202.70-36.56L202.70-56.25L205.51-56.25L205.51 0L202.70 0L202.70-22.50L182.97-22.50L182.97 0L180.16 0L180.16-56.25L182.97-56.25L182.97-36.56L202.70-36.56zM182.97-25.31L202.70-25.31L202.70-28.13L182.97-28.13L182.97-25.31zM182.97-30.94L202.70-30.94L202.70-33.75L182.97-33.75L182.97-30.94" fill="#ff727d" stroke="none" stroke-width="none" transform="translate(-583.1333465576172,24.877896166508744)" style="fill: rgb(144, 255, 181);"></path></g><g class="path" style="transform: scale(1); transform-origin: -407.198px -3.2471px 0px; animation: 2s linear -0.993267s infinite normal forwards running beat-f3664b4e-bacf-43c4-9de5-cb1cd4faa484;"><path d="M174.53 0L174.53-56.25L177.34-56.25L177.34 0L174.53 0" fill="#ff727d" stroke="none" stroke-width="none" transform="translate(-583.1333465576172,24.877896166508744)" style="fill: rgb(96, 231, 243);"></path></g><g class="path" style="transform: scale(1); transform-origin: -412.818px -3.2471px 0px; animation: 2s linear -0.980198s infinite normal forwards running beat-f3664b4e-bacf-43c4-9de5-cb1cd4faa484;"><path d="M168.91 0L168.91-56.25L171.72-56.25L171.72 0L168.91 0" fill="#ff727d" stroke="none" stroke-width="none" transform="translate(-583.1333465576172,24.877896166508744)" style="fill: rgb(255, 114, 125);"></path></g><g class="path" style="transform: scale(1); transform-origin: -340.748px -3.2471px 0px; animation: 2s linear -0.967129s infinite normal forwards running beat-f3664b4e-bacf-43c4-9de5-cb1cd4faa484;"><path d="M243.79-56.25L243.79 0L240.98 0L240.98-56.25L243.79-56.25" fill="#ff727d" stroke="none" stroke-width="none" transform="translate(-583.1333465576172,24.877896166508744)" style="fill: rgb(255, 211, 145);"></path></g><g class="path" style="transform: scale(1); transform-origin: -346.378px -3.2471px 0px; animation: 2s linear -0.954059s infinite normal forwards running beat-f3664b4e-bacf-43c4-9de5-cb1cd4faa484;"><path d="M238.16-56.25L238.16 0L235.35 0L235.35-56.25L238.16-56.25" fill="#ff727d" stroke="none" stroke-width="none" transform="translate(-583.1333465576172,24.877896166508744)" style="fill: rgb(255, 251, 208);"></path></g><g class="path" style="transform: scale(1); transform-origin: -351.998px -3.2471px 0px; animation: 2s linear -0.94099s infinite normal forwards running beat-f3664b4e-bacf-43c4-9de5-cb1cd4faa484;"><path d="M232.54-56.25L232.54 0L229.73 0L229.73-56.25L232.54-56.25" fill="#ff727d" stroke="none" stroke-width="none" transform="translate(-583.1333465576172,24.877896166508744)" style="fill: rgb(144, 255, 181);"></path></g><g class="path" style="transform: scale(1); transform-origin: -321.668px -3.2471px 0px; animation: 2s linear -0.927921s infinite normal forwards running beat-f3664b4e-bacf-43c4-9de5-cb1cd4faa484;"><path d="M249.41-21.13L249.41-14.06L276.33-14.06L276.33-11.25L249.41-11.25L249.41-8.44L276.33-8.44L276.33-5.63L249.41-5.63L249.41-2.81L276.33-2.81L276.33 0L246.60 0L246.60-56.25L276.33-56.25L276.33-53.44L249.41-53.44L249.41-50.63L276.33-50.63L276.33-47.81L249.41-47.81L249.41-45L276.33-45L276.33-42.19L249.41-42.19L249.41-35.20L274.77-35.20L274.77-32.38L249.41-32.38L249.41-29.57L274.77-29.57L274.77-26.76L249.41-26.76L249.41-23.95L274.77-23.95L274.77-21.13L249.41-21.13" fill="#ff727d" stroke="none" stroke-width="none" transform="translate(-583.1333465576172,24.877896166508744)" style="fill: rgb(96, 231, 243);"></path></g><g class="path" style="transform: scale(1); transform-origin: -298.638px -3.2471px 0px; animation: 2s linear -0.914852s infinite normal forwards running beat-f3664b4e-bacf-43c4-9de5-cb1cd4faa484;"><path d="M283.09 0L283.09-56.25L285.90-56.25L285.90 0L283.09 0" fill="#ff727d" stroke="none" stroke-width="none" transform="translate(-583.1333465576172,24.877896166508744)" style="fill: rgb(255, 114, 125);"></path></g><g class="path" style="transform: scale(1); transform-origin: -271.393px -3.2471px 0px; animation: 2s linear -0.901782s infinite normal forwards running beat-f3664b4e-bacf-43c4-9de5-cb1cd4faa484;"><path d="M299.96 0L299.96-56.25L302.77-56.25L302.77-14.06L323.52-14.06L323.52-11.25L302.77-11.25L302.77-8.44L323.52-8.44L323.52-5.63L302.77-5.63L302.77-2.81L323.52-2.81L323.52 0L299.96 0" fill="#ff727d" stroke="none" stroke-width="none" transform="translate(-583.1333465576172,24.877896166508744)" style="fill: rgb(255, 211, 145);"></path></g><g class="path" style="transform: scale(1); transform-origin: -287.388px -3.2471px 0px; animation: 2s linear -0.888713s infinite normal forwards running beat-f3664b4e-bacf-43c4-9de5-cb1cd4faa484;"><path d="M294.34 0L294.34-56.25L297.15-56.25L297.15 0L294.34 0" fill="#ff727d" stroke="none" stroke-width="none" transform="translate(-583.1333465576172,24.877896166508744)" style="fill: rgb(255, 251, 208);"></path></g><g class="path" style="transform: scale(1); transform-origin: -293.018px -3.2471px 0px; animation: 2s linear -0.875644s infinite normal forwards running beat-f3664b4e-bacf-43c4-9de5-cb1cd4faa484;"><path d="M288.71 0L288.71-56.25L291.52-56.25L291.52 0L288.71 0" fill="#ff727d" stroke="none" stroke-width="none" transform="translate(-583.1333465576172,24.877896166508744)" style="fill: rgb(144, 255, 181);"></path></g><g class="path" style="transform: scale(1); transform-origin: -240.748px -3.2471px 0px; animation: 2s linear -0.862574s infinite normal forwards running beat-f3664b4e-bacf-43c4-9de5-cb1cd4faa484;"><path d="M343.79-56.25L343.79 0L340.98 0L340.98-56.25L343.79-56.25" fill="#ff727d" stroke="none" stroke-width="none" transform="translate(-583.1333465576172,24.877896166508744)" style="fill: rgb(96, 231, 243);"></path></g><g class="path" style="transform: scale(1); transform-origin: -246.378px -3.2471px 0px; animation: 2s linear -0.849505s infinite normal forwards running beat-f3664b4e-bacf-43c4-9de5-cb1cd4faa484;"><path d="M338.16-56.25L338.16 0L335.35 0L335.35-56.25L338.16-56.25" fill="#ff727d" stroke="none" stroke-width="none" transform="translate(-583.1333465576172,24.877896166508744)" style="fill: rgb(255, 114, 125);"></path></g><g class="path" style="transform: scale(1); transform-origin: -251.998px -3.2471px 0px; animation: 2s linear -0.836436s infinite normal forwards running beat-f3664b4e-bacf-43c4-9de5-cb1cd4faa484;"><path d="M332.54-56.25L332.54 0L329.73 0L329.73-56.25L332.54-56.25" fill="#ff727d" stroke="none" stroke-width="none" transform="translate(-583.1333465576172,24.877896166508744)" style="fill: rgb(255, 211, 145);"></path></g><g class="path" style="transform: scale(1); transform-origin: -221.668px -3.2471px 0px; animation: 2s linear -0.823366s infinite normal forwards running beat-f3664b4e-bacf-43c4-9de5-cb1cd4faa484;"><path d="M349.41-21.13L349.41-14.06L376.33-14.06L376.33-11.25L349.41-11.25L349.41-8.44L376.33-8.44L376.33-5.63L349.41-5.63L349.41-2.81L376.33-2.81L376.33 0L346.60 0L346.60-56.25L376.33-56.25L376.33-53.44L349.41-53.44L349.41-50.63L376.33-50.63L376.33-47.81L349.41-47.81L349.41-45L376.33-45L376.33-42.19L349.41-42.19L349.41-35.20L374.77-35.20L374.77-32.38L349.41-32.38L349.41-29.57L374.77-29.57L374.77-26.76L349.41-26.76L349.41-23.95L374.77-23.95L374.77-21.13L349.41-21.13" fill="#ff727d" stroke="none" stroke-width="none" transform="translate(-583.1333465576172,24.877896166508744)" style="fill: rgb(255, 251, 208);"></path></g><g class="path" style="transform: scale(1); transform-origin: -143.408px 10.4229px 0px; animation: 2s linear -0.810297s infinite normal forwards running beat-f3664b4e-bacf-43c4-9de5-cb1cd4faa484;"><path d="M438.32 0L438.32-23.59L441.13-28.91L441.13 0L438.32 0" fill="#ff727d" stroke="none" stroke-width="none" transform="translate(-583.1333465576172,24.877896166508744)" style="fill: rgb(144, 255, 181);"></path></g><g class="path" style="transform: scale(1); transform-origin: -137.778px 5.0329px 0px; animation: 2s linear -0.797228s infinite normal forwards running beat-f3664b4e-bacf-43c4-9de5-cb1cd4faa484;"><path d="M443.95 0L443.95-34.38L446.76-39.69L446.76 0L443.95 0" fill="#ff727d" stroke="none" stroke-width="none" transform="translate(-583.1333465576172,24.877896166508744)" style="fill: rgb(96, 231, 243);"></path></g><g class="path" style="transform: scale(1); transform-origin: -132.158px -0.297104px 0px; animation: 2s linear -0.784158s infinite normal forwards running beat-f3664b4e-bacf-43c4-9de5-cb1cd4faa484;"><path d="M449.57 0L449.57-45L452.38-50.35L452.38 0L449.57 0" fill="#ff727d" stroke="none" stroke-width="none" transform="translate(-583.1333465576172,24.877896166508744)" style="fill: rgb(255, 114, 125);"></path></g><g class="path" style="transform: scale(1); transform-origin: -142.763px -19.9271px 0px; animation: 2s linear -0.771089s infinite normal forwards running beat-f3664b4e-bacf-43c4-9de5-cb1cd4faa484;"><path d="M451.64-64.69L430.70-24.92L429.10-27.85L448.48-64.69L451.64-64.69" fill="#ff727d" stroke="none" stroke-width="none" transform="translate(-583.1333465576172,24.877896166508744)" style="fill: rgb(255, 211, 145);"></path></g><g class="path" style="transform: scale(1); transform-origin: -147.588px -22.9921px 0px; animation: 2s linear -0.75802s infinite normal forwards running beat-f3664b4e-bacf-43c4-9de5-cb1cd4faa484;"><path d="M445.27-64.69L427.46-31.05L425.82-34.02L442.07-64.69L445.27-64.69" fill="#ff727d" stroke="none" stroke-width="none" transform="translate(-583.1333465576172,24.877896166508744)" style="fill: rgb(255, 251, 208);"></path></g><g class="path" style="transform: scale(1); transform-origin: -173.093px 10.5829px 0px; animation: 2s linear -0.744951s infinite normal forwards running beat-f3664b4e-bacf-43c4-9de5-cb1cd4faa484;"><path d="M408.63 0L408.63-28.59L411.45-23.28L411.45 0L408.63 0" fill="#ff727d" stroke="none" stroke-width="none" transform="translate(-583.1333465576172,24.877896166508744)" style="fill: rgb(144, 255, 181);"></path></g><g class="path" style="transform: scale(1); transform-origin: -178.718px 5.2279px 0px; animation: 2s linear -0.731881s infinite normal forwards running beat-f3664b4e-bacf-43c4-9de5-cb1cd4faa484;"><path d="M403.01 0L403.01-39.30L405.82-33.98L405.82 0L403.01 0" fill="#ff727d" stroke="none" stroke-width="none" transform="translate(-583.1333465576172,24.877896166508744)" style="fill: rgb(96, 231, 243);"></path></g><g class="path" style="transform: scale(1); transform-origin: -184.343px -0.122105px 0px; animation: 2s linear -0.718812s infinite normal forwards running beat-f3664b4e-bacf-43c4-9de5-cb1cd4faa484;"><path d="M397.38 0L397.38-50L400.20-44.65L400.20 0L397.38 0" fill="#ff727d" stroke="none" stroke-width="none" transform="translate(-583.1333465576172,24.877896166508744)" style="fill: rgb(255, 114, 125);"></path></g><g class="path" style="transform: scale(1); transform-origin: -177.193px -7.46711px 0px; animation: 2s linear -0.705743s infinite normal forwards running beat-f3664b4e-bacf-43c4-9de5-cb1cd4faa484;"><path d="M394.92-64.69L420.12-16.88L416.95-16.88L394.57-59.34L394.57 0L391.76 0L391.76-64.69L394.92-64.69" fill="#ff727d" stroke="none" stroke-width="none" transform="translate(-583.1333465576172,24.877896166508744)" style="fill: rgb(255, 211, 145);"></path></g><g class="path" style="transform: scale(1); transform-origin: -170.828px -15.9071px 0px; animation: 2s linear -0.692673s infinite normal forwards running beat-f3664b4e-bacf-43c4-9de5-cb1cd4faa484;"><path d="M401.33-64.69L426.48-16.88L423.28-16.88L398.13-64.69L401.33-64.69" fill="#ff727d" stroke="none" stroke-width="none" transform="translate(-583.1333465576172,24.877896166508744)" style="fill: rgb(255, 251, 208);"></path></g><g class="path" style="transform: scale(1); transform-origin: -151.883px -7.46711px 0px; animation: 2s linear -0.679604s infinite normal forwards running beat-f3664b4e-bacf-43c4-9de5-cb1cd4faa484;"><path d="M455.20 0L455.20-59.34L432.81-16.88L429.61-16.88L404.49-64.69L407.66-64.69L431.25-19.84L454.80-64.69L458.01-64.69L458.01 0L455.20 0" fill="#ff727d" stroke="none" stroke-width="none" transform="translate(-583.1333465576172,24.877896166508744)" style="fill: rgb(144, 255, 181);"></path></g><g class="path" style="transform: scale(1); transform-origin: -88.6434px 4.3679px 0px; animation: 2s linear -0.666535s infinite normal forwards running beat-f3664b4e-bacf-43c4-9de5-cb1cd4faa484;"><path d="M505.35 0L505.35-27.73L505.35-27.73Q505.35-32.73 502.27-35.47L502.27-35.47L502.27-35.47Q499.18-38.20 494.10-38.20L494.10-38.20L494.10-38.20Q489.80-38.20 486.72-35.23L486.72-35.23L486.72-35.23Q483.63-32.27 483.63-28.13L483.63-28.13L483.63-28.13Q483.63-25.78 484.26-23.93L484.26-23.93L484.26-23.93Q484.88-22.07 485.96-20.84L485.96-20.84L485.96-20.84Q487.03-19.61 488.52-18.81L488.52-18.81L488.52-18.81Q490-18.01 491.62-17.66L491.62-17.66L491.62-17.66Q493.24-17.30 495.08-17.30L495.08-17.30L495.08-17.30Q499.53-17.30 503.20-19.49L503.20-19.49L503.20-16.68L503.20-16.68Q499.41-14.69 495.04-14.69L495.04-14.69L495.04-14.69Q492.23-14.69 489.75-15.45L489.75-15.45L489.75-15.45Q487.27-16.21 485.23-17.75L485.23-17.75L485.23-17.75Q483.20-19.30 482.01-21.97L482.01-21.97L482.01-21.97Q480.82-24.65 480.82-28.13L480.82-28.13L480.82-28.13Q480.82-33.52 484.61-37.27L484.61-37.27L484.61-37.27Q488.40-41.02 494.10-41.02L494.10-41.02L494.10-41.02Q500.39-41.02 504.28-37.48L504.28-37.48L504.28-37.48Q508.16-33.95 508.16-27.73L508.16-27.73L508.16 0L505.35 0" fill="#ff727d" stroke="none" stroke-width="none" transform="translate(-583.1333465576172,24.877896166508744)" style="fill: rgb(96, 231, 243);"></path></g><g class="path" style="transform: scale(1); transform-origin: -88.6384px 1.5579px 0px; animation: 2s linear -0.653465s infinite normal forwards running beat-f3664b4e-bacf-43c4-9de5-cb1cd4faa484;"><path d="M513.79-27.73L513.79-27.73L513.79 0L510.98 0L510.98-27.73L510.98-27.73Q510.98-35.12 506.25-39.47L506.25-39.47L506.25-39.47Q501.52-43.83 494.10-43.83L494.10-43.83L494.10-43.83Q487.23-43.83 482.62-39.26L482.62-39.26L482.62-39.26Q478.01-34.69 478.01-28.13L478.01-28.13L478.01-28.13Q478.01-24.14 479.39-20.98L479.39-20.98L479.39-20.98Q480.78-17.81 483.16-15.90L483.16-15.90L483.16-15.90Q485.55-13.98 488.50-12.99L488.50-12.99L488.50-12.99Q491.45-11.99 494.73-11.99L494.73-11.99L494.73-11.99Q499.18-11.99 503.20-14.06L503.20-14.06L503.20-11.09L503.20-11.09Q498.98-9.34 494.69-9.34L494.69-9.34L494.69-9.34Q490.82-9.34 487.34-10.53L487.34-10.53L487.34-10.53Q483.87-11.72 481.13-14.00L481.13-14.00L481.13-14.00Q478.40-16.29 476.80-19.94L476.80-19.94L476.80-19.94Q475.20-23.59 475.20-28.13L475.20-28.13L475.20-28.13Q475.20-35.82 480.64-41.23L480.64-41.23L480.64-41.23Q486.09-46.64 494.10-46.64L494.10-46.64L494.10-46.64Q499.73-46.64 504.18-44.36L504.18-44.36L504.18-44.36Q508.63-42.07 511.21-37.73L511.21-37.73L511.21-37.73Q513.79-33.40 513.79-27.73" fill="#ff727d" stroke="none" stroke-width="none" transform="translate(-583.1333465576172,24.877896166508744)" style="fill: rgb(255, 114, 125);"></path></g><g class="path" style="transform: scale(1); transform-origin: -88.6434px -1.2571px 0px; animation: 2s linear -0.640396s infinite normal forwards running beat-f3664b4e-bacf-43c4-9de5-cb1cd4faa484;"><path d="M519.41-27.73L519.41-27.73L519.41 0L516.60 0L516.60-27.73L516.60-27.73Q516.60-34.18 513.65-39.16L513.65-39.16L513.65-39.16Q510.70-44.14 505.59-46.80L505.59-46.80L505.59-46.80Q500.47-49.45 494.10-49.45L494.10-49.45L494.10-49.45Q488.05-49.45 483.05-46.58L483.05-46.58L483.05-46.58Q478.05-43.71 475.21-38.83L475.21-38.83L475.21-38.83Q472.38-33.95 472.38-28.13L472.38-28.13L472.38-28.13Q472.38-23.13 474.22-19.00L474.22-19.00L474.22-19.00Q476.05-14.88 479.16-12.23L479.16-12.23L479.16-12.23Q482.27-9.57 486.23-8.11L486.23-8.11L486.23-8.11Q490.20-6.64 494.53-6.64L494.53-6.64L494.53-6.64Q498.95-6.64 503.20-8.48L503.20-8.48L503.20-5.63L503.20-5.63Q498.75-3.95 494.45-3.95L494.45-3.95L494.45-3.95Q487.70-3.95 482.03-6.99L482.03-6.99L482.03-6.99Q476.37-10.04 472.97-15.63L472.97-15.63L472.97-15.63Q469.57-21.21 469.57-28.13L469.57-28.13L469.57-28.13Q469.57-33.05 471.46-37.50L471.46-37.50L471.46-37.50Q473.36-41.95 476.60-45.20L476.60-45.20L476.60-45.20Q479.84-48.44 484.41-50.35L484.41-50.35L484.41-50.35Q488.98-52.27 494.10-52.27L494.10-52.27L494.10-52.27Q501.25-52.27 507.01-49.22L507.01-49.22L507.01-49.22Q512.77-46.17 516.09-40.55L516.09-40.55L516.09-40.55Q519.41-34.92 519.41-27.73" fill="#ff727d" stroke="none" stroke-width="none" transform="translate(-583.1333465576172,24.877896166508744)" style="fill: rgb(255, 211, 145);"></path></g><g class="path" style="transform: scale(1); transform-origin: -88.6384px -3.3071px 0px; animation: 2s linear -0.627327s infinite normal forwards running beat-f3664b4e-bacf-43c4-9de5-cb1cd4faa484;"><path d="M525.04-27.73L525.04-27.73L525.04 0L522.23 0L522.23-27.73L522.23-27.73Q522.23-35.70 518.52-41.97L518.52-41.97L518.52-41.97Q514.80-48.24 508.40-51.66L508.40-51.66L508.40-51.66Q501.99-55.08 494.10-55.08L494.10-55.08L494.10-55.08Q486.52-55.08 480.23-51.45L480.23-51.45L480.23-51.45Q473.95-47.81 470.35-41.62L470.35-41.62L470.35-41.62Q466.76-35.43 466.76-28.13L466.76-28.13L466.76-28.13Q466.76-23.32 468.30-19.00L468.30-19.00L468.30-19.00Q469.84-14.69 472.52-11.46L472.52-11.46L472.52-11.46Q475.20-8.24 478.69-5.90L478.69-5.90L478.69-5.90Q482.19-3.55 486.23-2.34L486.23-2.34L486.23-2.34Q490.27-1.13 494.45-1.13L494.45-1.13L494.45-1.13Q499.06-1.13 503.20-2.89L503.20-2.89L503.20 0L503.20 0Q498.87 1.52 494.30 1.52L494.30 1.52L494.30 1.52Q489.57 1.52 485.10 0.20L485.10 0.20L485.10 0.20Q480.63-1.13 476.82-3.73L476.82-3.73L476.82-3.73Q473.01-6.33 470.12-9.86L470.12-9.86L470.12-9.86Q467.23-13.40 465.59-18.13L465.59-18.13L465.59-18.13Q463.95-22.85 463.95-28.13L463.95-28.13L463.95-28.13Q463.95-34.18 466.23-39.67L466.23-39.67L466.23-39.67Q468.52-45.16 472.48-49.16L472.48-49.16L472.48-49.16Q476.45-53.16 482.09-55.53L482.09-55.53L482.09-55.53Q487.73-57.89 494.10-57.89L494.10-57.89L494.10-57.89Q500.59-57.89 506.29-55.70L506.29-55.70L506.29-55.70Q511.99-53.52 516.13-49.63L516.13-49.63L516.13-49.63Q520.27-45.74 522.66-40.08L522.66-40.08L522.66-40.08Q525.04-34.41 525.04-27.73" fill="#ff727d" stroke="none" stroke-width="none" transform="translate(-583.1333465576172,24.877896166508744)" style="fill: rgb(255, 251, 208);"></path></g><g class="path" style="transform: scale(1); transform-origin: -20.9884px 2.3779px 0px; animation: 2s linear -0.614257s infinite normal forwards running beat-f3664b4e-bacf-43c4-9de5-cb1cd4faa484;"><path d="M553.24-24.06L553.24-26.88L570.20-26.88L570.20-26.88Q573.55-26.88 575.90-28.98L575.90-28.98L575.90-28.98Q578.24-31.09 578.24-34.92L578.24-34.92L578.24-34.92Q578.24-37.73 575.80-39.96L575.80-39.96L575.80-39.96Q573.36-42.19 570.20-42.19L570.20-42.19L546.05-42.19L546.05 0L543.24 0L543.24-45L570.20-45L570.20-45Q574.53-45 577.79-41.95L577.79-41.95L577.79-41.95Q581.05-38.91 581.05-34.92L581.05-34.92L581.05-34.92Q581.05-29.96 577.89-27.01L577.89-27.01L577.89-27.01Q574.73-24.06 570.20-24.06L570.20-24.06L553.24-24.06" fill="#ff727d" stroke="none" stroke-width="none" transform="translate(-583.1333465576172,24.877896166508744)" style="fill: rgb(144, 255, 181);"></path></g><g class="path" style="transform: scale(1); transform-origin: -20.9834px -0.437105px 0px; animation: 2s linear -0.601188s infinite normal forwards running beat-f3664b4e-bacf-43c4-9de5-cb1cd4faa484;"><path d="M553.24-18.44L553.24-21.25L570.20-21.25L570.20-21.25Q575.82-21.25 579.84-25.08L579.84-25.08L579.84-25.08Q583.87-28.91 583.87-34.92L583.87-34.92L583.87-34.92Q583.87-40.04 579.77-43.93L579.77-43.93L579.77-43.93Q575.66-47.81 570.20-47.81L570.20-47.81L540.43-47.81L540.43 0L537.62 0L537.62-50.63L570.20-50.63L570.20-50.63Q576.84-50.63 581.76-45.92L581.76-45.92L581.76-45.92Q586.68-41.21 586.68-34.92L586.68-34.92L586.68-34.92Q586.68-27.89 581.82-23.16L581.82-23.16L581.82-23.16Q576.95-18.44 570.20-18.44L570.20-18.44L553.24-18.44" fill="#ff727d" stroke="none" stroke-width="none" transform="translate(-583.1333465576172,24.877896166508744)" style="fill: rgb(96, 231, 243);"></path></g><g class="path" style="transform: scale(1); transform-origin: -20.9884px -3.2471px 0px; animation: 2s linear -0.588119s infinite normal forwards running beat-f3664b4e-bacf-43c4-9de5-cb1cd4faa484;"><path d="M553.24-12.81L553.24-15.63L570.20-15.63L570.20-15.63Q575.39-15.63 579.80-18.13L579.80-18.13L579.80-18.13Q584.22-20.63 586.86-25.08L586.86-25.08L586.86-25.08Q589.49-29.53 589.49-34.92L589.49-34.92L589.49-34.92Q589.49-39.80 586.88-44.08L586.88-44.08L586.88-44.08Q584.26-48.36 579.79-50.90L579.79-50.90L579.79-50.90Q575.31-53.44 570.20-53.44L570.20-53.44L534.80-53.44L534.80 0L531.99 0L531.99-56.25L570.20-56.25L570.20-56.25Q574.61-56.25 578.69-54.51L578.69-54.51L578.69-54.51Q582.77-52.77 585.74-49.90L585.74-49.90L585.74-49.90Q588.71-47.03 590.51-43.09L590.51-43.09L590.51-43.09Q592.30-39.14 592.30-34.92L592.30-34.92L592.30-34.92Q592.30-28.09 589.18-22.99L589.18-22.99L589.18-22.99Q586.05-17.89 580.78-15.23L580.78-15.23L586.68 0L583.67 0L578.09-14.10L578.09-14.10Q577.03-13.75 575.63-13.40L575.63-13.40L580.90 0L577.89 0L572.73-12.93L572.73-12.93Q571.52-12.81 570.20-12.81L570.20-12.81L575.16 0L572.19 0L567.27-12.81L564.73-12.81L569.45 0L566.48 0L561.72-12.81L553.24-12.81" fill="#ff727d" stroke="none" stroke-width="none" transform="translate(-583.1333465576172,24.877896166508744)" style="fill: rgb(255, 114, 125);"></path></g><g class="path" style="transform: scale(1); transform-origin: -20.9834px 5.1879px 0px; animation: 2s linear -0.57505s infinite normal forwards running beat-f3664b4e-bacf-43c4-9de5-cb1cd4faa484;"><path d="M551.68-36.56L551.68 0L548.87 0L548.87-39.38L570.20-39.38L570.20-39.38Q572.38-39.38 573.91-38.07L573.91-38.07L573.91-38.07Q575.43-36.76 575.43-34.92L575.43-34.92L575.43-34.92Q575.43-29.69 570.20-29.69L570.20-29.69L553.24-29.69L553.24-32.50L570.20-32.50L570.20-32.50Q572.62-32.50 572.62-34.92L572.62-34.92L572.62-34.92Q572.62-35.59 571.89-36.07L571.89-36.07L571.89-36.07Q571.17-36.56 570.20-36.56L570.20-36.56L551.68-36.56" fill="#ff727d" stroke="none" stroke-width="none" transform="translate(-583.1333465576172,24.877896166508744)" style="fill: rgb(255, 211, 145);"></path></g><g class="path" style="transform: scale(1); transform-origin: 33.6617px -3.2471px 0px; animation: 2s linear -0.56198s infinite normal forwards running beat-f3664b4e-bacf-43c4-9de5-cb1cd4faa484;"><path d="M615.39 0L615.39-56.25L618.20-56.25L618.20 0L615.39 0" fill="#ff727d" stroke="none" stroke-width="none" transform="translate(-583.1333465576172,24.877896166508744)" style="fill: rgb(255, 251, 208);"></path></g><g class="path" style="transform: scale(1); transform-origin: 28.0417px -3.2471px 0px; animation: 2s linear -0.548911s infinite normal forwards running beat-f3664b4e-bacf-43c4-9de5-cb1cd4faa484;"><path d="M609.77 0L609.77-56.25L612.58-56.25L612.58 0L609.77 0" fill="#ff727d" stroke="none" stroke-width="none" transform="translate(-583.1333465576172,24.877896166508744)" style="fill: rgb(144, 255, 181);"></path></g><g class="path" style="transform: scale(1); transform-origin: 22.4117px -3.2471px 0px; animation: 2s linear -0.535842s infinite normal forwards running beat-f3664b4e-bacf-43c4-9de5-cb1cd4faa484;"><path d="M604.14 0L604.14-56.25L606.95-56.25L606.95 0L604.14 0" fill="#ff727d" stroke="none" stroke-width="none" transform="translate(-583.1333465576172,24.877896166508744)" style="fill: rgb(96, 231, 243);"></path></g><g class="path" style="transform: scale(1); transform-origin: 16.7917px -3.2471px 0px; animation: 2s linear -0.522772s infinite normal forwards running beat-f3664b4e-bacf-43c4-9de5-cb1cd4faa484;"><path d="M598.52 0L598.52-56.25L601.33-56.25L601.33 0L598.52 0" fill="#ff727d" stroke="none" stroke-width="none" transform="translate(-583.1333465576172,24.877896166508744)" style="fill: rgb(255, 114, 125);"></path></g><g class="path" style="transform: scale(1); transform-origin: 71.4767px 4.3679px 0px; animation: 2s linear -0.509703s infinite normal forwards running beat-f3664b4e-bacf-43c4-9de5-cb1cd4faa484;"><path d="M665.47 0L665.47-27.73L665.47-27.73Q665.47-32.73 662.38-35.47L662.38-35.47L662.38-35.47Q659.30-38.20 654.22-38.20L654.22-38.20L654.22-38.20Q649.92-38.20 646.84-35.23L646.84-35.23L646.84-35.23Q643.75-32.27 643.75-28.13L643.75-28.13L643.75-28.13Q643.75-25.78 644.38-23.93L644.38-23.93L644.38-23.93Q645-22.07 646.07-20.84L646.07-20.84L646.07-20.84Q647.15-19.61 648.63-18.81L648.63-18.81L648.63-18.81Q650.12-18.01 651.74-17.66L651.74-17.66L651.74-17.66Q653.36-17.30 655.20-17.30L655.20-17.30L655.20-17.30Q659.65-17.30 663.32-19.49L663.32-19.49L663.32-16.68L663.32-16.68Q659.53-14.69 655.16-14.69L655.16-14.69L655.16-14.69Q652.34-14.69 649.86-15.45L649.86-15.45L649.86-15.45Q647.38-16.21 645.35-17.75L645.35-17.75L645.35-17.75Q643.32-19.30 642.13-21.97L642.13-21.97L642.13-21.97Q640.94-24.65 640.94-28.13L640.94-28.13L640.94-28.13Q640.94-33.52 644.73-37.27L644.73-37.27L644.73-37.27Q648.52-41.02 654.22-41.02L654.22-41.02L654.22-41.02Q660.51-41.02 664.39-37.48L664.39-37.48L664.39-37.48Q668.28-33.95 668.28-27.73L668.28-27.73L668.28 0L665.47 0" fill="#ff727d" stroke="none" stroke-width="none" transform="translate(-583.1333465576172,24.877896166508744)" style="fill: rgb(255, 211, 145);"></path></g><g class="path" style="transform: scale(1); transform-origin: 71.4766px 1.5579px 0px; animation: 2s linear -0.496634s infinite normal forwards running beat-f3664b4e-bacf-43c4-9de5-cb1cd4faa484;"><path d="M673.91-27.73L673.91-27.73L673.91 0L671.09 0L671.09-27.73L671.09-27.73Q671.09-35.12 666.37-39.47L666.37-39.47L666.37-39.47Q661.64-43.83 654.22-43.83L654.22-43.83L654.22-43.83Q647.34-43.83 642.73-39.26L642.73-39.26L642.73-39.26Q638.13-34.69 638.13-28.13L638.13-28.13L638.13-28.13Q638.13-24.14 639.51-20.98L639.51-20.98L639.51-20.98Q640.90-17.81 643.28-15.90L643.28-15.90L643.28-15.90Q645.66-13.98 648.61-12.99L648.61-12.99L648.61-12.99Q651.56-11.99 654.84-11.99L654.84-11.99L654.84-11.99Q659.30-11.99 663.32-14.06L663.32-14.06L663.32-11.09L663.32-11.09Q659.10-9.34 654.80-9.34L654.80-9.34L654.80-9.34Q650.94-9.34 647.46-10.53L647.46-10.53L647.46-10.53Q643.98-11.72 641.25-14.00L641.25-14.00L641.25-14.00Q638.52-16.29 636.91-19.94L636.91-19.94L636.91-19.94Q635.31-23.59 635.31-28.13L635.31-28.13L635.31-28.13Q635.31-35.82 640.76-41.23L640.76-41.23L640.76-41.23Q646.21-46.64 654.22-46.64L654.22-46.64L654.22-46.64Q659.84-46.64 664.30-44.36L664.30-44.36L664.30-44.36Q668.75-42.07 671.33-37.73L671.33-37.73L671.33-37.73Q673.91-33.40 673.91-27.73" fill="#ff727d" stroke="none" stroke-width="none" transform="translate(-583.1333465576172,24.877896166508744)" style="fill: rgb(255, 251, 208);"></path></g><g class="path" style="transform: scale(1); transform-origin: 71.4767px -1.2571px 0px; animation: 2s linear -0.483564s infinite normal forwards running beat-f3664b4e-bacf-43c4-9de5-cb1cd4faa484;"><path d="M679.53-27.73L679.53-27.73L679.53 0L676.72 0L676.72-27.73L676.72-27.73Q676.72-34.18 673.77-39.16L673.77-39.16L673.77-39.16Q670.82-44.14 665.70-46.80L665.70-46.80L665.70-46.80Q660.59-49.45 654.22-49.45L654.22-49.45L654.22-49.45Q648.16-49.45 643.16-46.58L643.16-46.58L643.16-46.58Q638.16-43.71 635.33-38.83L635.33-38.83L635.33-38.83Q632.50-33.95 632.50-28.13L632.50-28.13L632.50-28.13Q632.50-23.13 634.34-19.00L634.34-19.00L634.34-19.00Q636.17-14.88 639.28-12.23L639.28-12.23L639.28-12.23Q642.38-9.57 646.35-8.11L646.35-8.11L646.35-8.11Q650.31-6.64 654.65-6.64L654.65-6.64L654.65-6.64Q659.06-6.64 663.32-8.48L663.32-8.48L663.32-5.63L663.32-5.63Q658.87-3.95 654.57-3.95L654.57-3.95L654.57-3.95Q647.81-3.95 642.15-6.99L642.15-6.99L642.15-6.99Q636.48-10.04 633.09-15.63L633.09-15.63L633.09-15.63Q629.69-21.21 629.69-28.13L629.69-28.13L629.69-28.13Q629.69-33.05 631.58-37.50L631.58-37.50L631.58-37.50Q633.48-41.95 636.72-45.20L636.72-45.20L636.72-45.20Q639.96-48.44 644.53-50.35L644.53-50.35L644.53-50.35Q649.10-52.27 654.22-52.27L654.22-52.27L654.22-52.27Q661.37-52.27 667.13-49.22L667.13-49.22L667.13-49.22Q672.89-46.17 676.21-40.55L676.21-40.55L676.21-40.55Q679.53-34.92 679.53-27.73" fill="#ff727d" stroke="none" stroke-width="none" transform="translate(-583.1333465576172,24.877896166508744)" style="fill: rgb(144, 255, 181);"></path></g><g class="path" style="transform: scale(1); transform-origin: 71.4766px -3.3071px 0px; animation: 2s linear -0.470495s infinite normal forwards running beat-f3664b4e-bacf-43c4-9de5-cb1cd4faa484;"><path d="M685.16-27.73L685.16-27.73L685.16 0L682.34 0L682.34-27.73L682.34-27.73Q682.34-35.70 678.63-41.97L678.63-41.97L678.63-41.97Q674.92-48.24 668.52-51.66L668.52-51.66L668.52-51.66Q662.11-55.08 654.22-55.08L654.22-55.08L654.22-55.08Q646.64-55.08 640.35-51.45L640.35-51.45L640.35-51.45Q634.06-47.81 630.47-41.62L630.47-41.62L630.47-41.62Q626.88-35.43 626.88-28.13L626.88-28.13L626.88-28.13Q626.88-23.32 628.42-19.00L628.42-19.00L628.42-19.00Q629.96-14.69 632.64-11.46L632.64-11.46L632.64-11.46Q635.31-8.24 638.81-5.90L638.81-5.90L638.81-5.90Q642.30-3.55 646.35-2.34L646.35-2.34L646.35-2.34Q650.39-1.13 654.57-1.13L654.57-1.13L654.57-1.13Q659.18-1.13 663.32-2.89L663.32-2.89L663.32 0L663.32 0Q658.98 1.52 654.41 1.52L654.41 1.52L654.41 1.52Q649.69 1.52 645.21 0.20L645.21 0.20L645.21 0.20Q640.74-1.13 636.93-3.73L636.93-3.73L636.93-3.73Q633.13-6.33 630.23-9.86L630.23-9.86L630.23-9.86Q627.34-13.40 625.70-18.13L625.70-18.13L625.70-18.13Q624.06-22.85 624.06-28.13L624.06-28.13L624.06-28.13Q624.06-34.18 626.35-39.67L626.35-39.67L626.35-39.67Q628.63-45.16 632.60-49.16L632.60-49.16L632.60-49.16Q636.56-53.16 642.21-55.53L642.21-55.53L642.21-55.53Q647.85-57.89 654.22-57.89L654.22-57.89L654.22-57.89Q660.70-57.89 666.41-55.70L666.41-55.70L666.41-55.70Q672.11-53.52 676.25-49.63L676.25-49.63L676.25-49.63Q680.39-45.74 682.77-40.08L682.77-40.08L682.77-40.08Q685.16-34.41 685.16-27.73" fill="#ff727d" stroke="none" stroke-width="none" transform="translate(-583.1333465576172,24.877896166508744)" style="fill: rgb(96, 231, 243);"></path></g><g class="path" style="transform: scale(1); transform-origin: 140.772px 0.967896px 0px; animation: 2s linear -0.457426s infinite normal forwards running beat-f3664b4e-bacf-43c4-9de5-cb1cd4faa484;"><path d="M726.91-39.38L726.91-39.38L722.19-39.38L722.19-39.38Q719.18-39.38 717.85-40.92L717.85-40.92L717.85-40.92Q716.52-42.46 716.52-45L716.52-45L716.52-45Q716.52-50.63 724.92-50.63L724.92-50.63L724.92-50.63Q732.81-50.63 736.80-48.28L736.80-48.28L734.53-46.56L734.53-46.56Q731.80-47.81 724.92-47.81L724.92-47.81L724.92-47.81Q721.56-47.81 720.41-47.07L720.41-47.07L720.41-47.07Q719.26-46.33 719.26-45L719.26-45L719.26-45Q719.26-43.67 719.88-42.93L719.88-42.93L719.88-42.93Q720.51-42.19 722.19-42.19L722.19-42.19L727.03-42.19L727.03-42.19Q732.30-42.19 736.54-40.39L736.54-40.39L736.54-40.39Q740.78-38.59 743.52-35.49L743.52-35.49L743.52-35.49Q746.25-32.38 747.70-28.34L747.70-28.34L747.70-28.34Q749.14-24.30 749.14-19.69L749.14-19.69L749.14-19.69Q749.14-15.94 748.09-12.58L748.09-12.58L748.09-12.58Q747.03-9.22 744.90-6.41L744.90-6.41L744.90-6.41Q742.77-3.59 739.79-1.54L739.79-1.54L739.79-1.54Q736.80 0.51 732.68 1.66L732.68 1.66L732.68 1.66Q728.55 2.81 723.75 2.81L723.75 2.81L723.75 2.81Q716.21 2.81 709.63 0.53L709.63 0.53L709.63 0.53Q703.05-1.76 698.67-5.86L698.67-5.86L700.94-7.54L700.94-7.54Q704.92-3.95 710.92-1.97L710.92-1.97L710.92-1.97Q716.91 0 723.75 0L723.75 0L723.75 0Q729.10 0 733.42-1.54L733.42-1.54L733.42-1.54Q737.73-3.09 740.53-5.78L740.53-5.78L740.53-5.78Q743.32-8.48 744.82-12.03L744.82-12.03L744.82-12.03Q746.33-15.59 746.33-19.69L746.33-19.69L746.33-19.69Q746.33-25.12 744.14-29.51L744.14-29.51L744.14-29.51Q741.95-33.91 737.48-36.64L737.48-36.64L737.48-36.64Q733.01-39.38 726.91-39.38" fill="#ff727d" stroke="none" stroke-width="none" transform="translate(-583.1333465576172,24.877896166508744)" style="fill: rgb(255, 114, 125);"></path></g><g class="path" style="transform: scale(1); transform-origin: 140.152px -4.6521px 0px; animation: 2s linear -0.444356s infinite normal forwards running beat-f3664b4e-bacf-43c4-9de5-cb1cd4faa484;"><path d="M722.19-36.56L722.19-36.56L726.64-36.56L726.64-36.56Q734.57-36.56 739.04-31.72L739.04-31.72L739.04-31.72Q743.52-26.88 743.52-19.69L743.52-19.69L743.52-19.69Q743.52-12.38 738.32-7.60L738.32-7.60L738.32-7.60Q733.13-2.81 723.75-2.81L723.75-2.81L723.75-2.81Q717.50-2.81 712.07-4.53L712.07-4.53L712.07-4.53Q706.64-6.25 703.05-9.38L703.05-9.38L705.23-11.13L705.23-11.13Q708.44-8.52 713.30-7.07L713.30-7.07L713.30-7.07Q718.16-5.63 723.75-5.63L723.75-5.63L723.75-5.63Q731.99-5.63 736.35-9.57L736.35-9.57L736.35-9.57Q740.70-13.52 740.70-19.69L740.70-19.69L740.70-19.69Q740.70-25.78 737.05-29.77L737.05-29.77L737.05-29.77Q733.40-33.75 726.60-33.75L726.60-33.75L722.19-33.75L722.19-33.75Q716.48-33.75 713.63-36.88L713.63-36.88L713.63-36.88Q710.78-40 710.78-45L710.78-45L710.78-45Q710.78-50 714.32-53.13L714.32-53.13L714.32-53.13Q717.85-56.25 724.92-56.25L724.92-56.25L724.92-56.25Q729.88-56.25 734.14-55.10L734.14-55.10L734.14-55.10Q738.40-53.95 741.17-51.80L741.17-51.80L738.95-50.08L738.95-50.08Q734.06-53.44 724.92-53.44L724.92-53.44L724.92-53.44Q719.02-53.44 716.31-51.11L716.31-51.11L716.31-51.11Q713.59-48.79 713.59-45L713.59-45L713.59-45Q713.59-41.17 715.61-38.87L715.61-38.87L715.61-38.87Q717.62-36.56 722.19-36.56" fill="#ff727d" stroke="none" stroke-width="none" transform="translate(-583.1333465576172,24.877896166508744)" style="fill: rgb(255, 211, 145);"></path></g><g class="path" style="transform: scale(1); transform-origin: 142.242px -10.2821px 0px; animation: 2s linear -0.431287s infinite normal forwards running beat-f3664b4e-bacf-43c4-9de5-cb1cd4faa484;"><path d="M722.19-30.94L722.19-30.94L726.48-30.94L726.48-30.94Q732.19-30.94 735.04-27.77L735.04-27.77L735.04-27.77Q737.89-24.61 737.89-19.69L737.89-19.69L737.89-19.69Q737.89-14.69 734.36-11.56L734.36-11.56L734.36-11.56Q730.82-8.44 723.75-8.44L723.75-8.44L723.75-8.44Q718.79-8.44 714.51-9.59L714.51-9.59L714.51-9.59Q710.23-10.74 707.46-12.89L707.46-12.89L709.69-14.61L709.69-14.61Q714.57-11.25 723.75-11.25L723.75-11.25L723.75-11.25Q729.65-11.25 732.36-13.57L732.36-13.57L732.36-13.57Q735.08-15.90 735.08-19.69L735.08-19.69L735.08-19.69Q735.08-23.48 733.05-25.80L733.05-25.80L733.05-25.80Q731.02-28.13 726.45-28.13L726.45-28.13L722.19-28.13L722.19-28.13Q714.18-28.13 709.67-32.91L709.67-32.91L709.67-32.91Q705.16-37.70 705.16-45L705.16-45L705.16-45Q705.16-52.30 710.35-57.09L710.35-57.09L710.35-57.09Q715.55-61.88 724.92-61.88L724.92-61.88L724.92-61.88Q731.17-61.88 736.58-60.16L736.58-60.16L736.58-60.16Q741.99-58.44 745.59-55.31L745.59-55.31L743.40-53.55L743.40-53.55Q740.20-56.17 735.35-57.62L735.35-57.62L735.35-57.62Q730.51-59.06 724.92-59.06L724.92-59.06L724.92-59.06Q716.68-59.06 712.32-55.12L712.32-55.12L712.32-55.12Q707.97-51.17 707.97-45L707.97-45L707.97-45Q707.97-38.87 711.64-34.90L711.64-34.90L711.64-34.90Q715.31-30.94 722.19-30.94" fill="#ff727d" stroke="none" stroke-width="none" transform="translate(-583.1333465576172,24.877896166508744)" style="fill: rgb(255, 251, 208);"></path></g><g class="path" style="transform: scale(1); transform-origin: 141.612px -15.9021px 0px; animation: 2s linear -0.418218s infinite normal forwards running beat-f3664b4e-bacf-43c4-9de5-cb1cd4faa484;"><path d="M722.19-25.31L722.19-25.31L726.48-25.31L726.48-25.31Q729.49-25.31 730.82-23.75L730.82-23.75L730.82-23.75Q732.15-22.19 732.15-19.69L732.15-19.69L732.15-19.69Q732.15-14.06 723.75-14.06L723.75-14.06L723.75-14.06Q715.82-14.06 711.84-16.41L711.84-16.41L714.10-18.13L714.10-18.13Q716.84-16.88 723.75-16.88L723.75-16.88L723.75-16.88Q727.11-16.88 728.26-17.62L728.26-17.62L728.26-17.62Q729.41-18.36 729.41-19.69L729.41-19.69L729.41-19.69Q729.41-20.98 728.77-21.74L728.77-21.74L728.77-21.74Q728.13-22.50 726.41-22.50L726.41-22.50L722.19-22.50L722.19-22.50Q716.80-22.50 712.44-24.26L712.44-24.26L712.44-24.26Q708.09-26.02 705.29-29.10L705.29-29.10L705.29-29.10Q702.50-32.19 701.02-36.25L701.02-36.25L701.02-36.25Q699.53-40.31 699.53-45L699.53-45L699.53-45Q699.53-48.75 700.59-52.11L700.59-52.11L700.59-52.11Q701.64-55.47 703.77-58.28L703.77-58.28L703.77-58.28Q705.90-61.09 708.89-63.14L708.89-63.14L708.89-63.14Q711.88-65.20 716.00-66.35L716.00-66.35L716.00-66.35Q720.12-67.50 724.92-67.50L724.92-67.50L724.92-67.50Q732.46-67.50 739.02-65.21L739.02-65.21L739.02-65.21Q745.59-62.93 749.96-58.83L749.96-58.83L747.70-57.15L747.70-57.15Q743.71-60.74 737.73-62.71L737.73-62.71L737.73-62.71Q731.76-64.69 724.92-64.69L724.92-64.69L724.92-64.69Q719.57-64.69 715.25-63.14L715.25-63.14L715.25-63.14Q710.94-61.60 708.14-58.91L708.14-58.91L708.14-58.91Q705.35-56.21 703.85-52.66L703.85-52.66L703.85-52.66Q702.34-49.10 702.34-45L702.34-45L702.34-45Q702.34-39.49 704.57-35.08L704.57-35.08L704.57-35.08Q706.80-30.66 711.37-27.99L711.37-27.99L711.37-27.99Q715.94-25.31 722.19-25.31" fill="#ff727d" stroke="none" stroke-width="none" transform="translate(-583.1333465576172,24.877896166508744)" style="fill: rgb(144, 255, 181);"></path></g><g class="path" style="transform: scale(1); transform-origin: 184.872px -3.2471px 0px; animation: 2s linear -0.405149s infinite normal forwards running beat-f3664b4e-bacf-43c4-9de5-cb1cd4faa484;"><path d="M769.41-56.25L769.41 0L766.60 0L766.60-56.25L769.41-56.25" fill="#ff727d" stroke="none" stroke-width="none" transform="translate(-583.1333465576172,24.877896166508744)" style="fill: rgb(96, 231, 243);"></path></g><g class="path" style="transform: scale(1); transform-origin: 179.252px -3.2471px 0px; animation: 2s linear -0.392079s infinite normal forwards running beat-f3664b4e-bacf-43c4-9de5-cb1cd4faa484;"><path d="M763.79-56.25L763.79 0L760.98 0L760.98-56.25L763.79-56.25" fill="#ff727d" stroke="none" stroke-width="none" transform="translate(-583.1333465576172,24.877896166508744)" style="fill: rgb(255, 114, 125);"></path></g><g class="path" style="transform: scale(1); transform-origin: 173.622px -3.2471px 0px; animation: 2s linear -0.37901s infinite normal forwards running beat-f3664b4e-bacf-43c4-9de5-cb1cd4faa484;"><path d="M758.16-56.25L758.16 0L755.35 0L755.35-56.25L758.16-56.25" fill="#ff727d" stroke="none" stroke-width="none" transform="translate(-583.1333465576172,24.877896166508744)" style="fill: rgb(255, 211, 145);"></path></g><g class="path" style="transform: scale(1); transform-origin: 203.957px -3.2471px 0px; animation: 2s linear -0.365941s infinite normal forwards running beat-f3664b4e-bacf-43c4-9de5-cb1cd4faa484;"><path d="M775.04-21.13L775.04-14.06L801.95-14.06L801.95-11.25L775.04-11.25L775.04-8.44L801.95-8.44L801.95-5.63L775.04-5.63L775.04-2.81L801.95-2.81L801.95 0L772.23 0L772.23-56.25L801.95-56.25L801.95-53.44L775.04-53.44L775.04-50.63L801.95-50.63L801.95-47.81L775.04-47.81L775.04-45L801.95-45L801.95-42.19L775.04-42.19L775.04-35.20L800.39-35.20L800.39-32.38L775.04-32.38L775.04-29.57L800.39-29.57L800.39-26.76L775.04-26.76L775.04-23.95L800.39-23.95L800.39-21.13L775.04-21.13" fill="#ff727d" stroke="none" stroke-width="none" transform="translate(-583.1333465576172,24.877896166508744)" style="fill: rgb(255, 251, 208);"></path></g><g class="path" style="transform: scale(1); transform-origin: 255.732px 2.3779px 0px; animation: 2s linear -0.352871s infinite normal forwards running beat-f3664b4e-bacf-43c4-9de5-cb1cd4faa484;"><path d="M829.96-24.06L829.96-26.88L846.91-26.88L846.91-26.88Q850.27-26.88 852.62-28.98L852.62-28.98L852.62-28.98Q854.96-31.09 854.96-34.92L854.96-34.92L854.96-34.92Q854.96-37.73 852.52-39.96L852.52-39.96L852.52-39.96Q850.08-42.19 846.91-42.19L846.91-42.19L822.77-42.19L822.77 0L819.96 0L819.96-45L846.91-45L846.91-45Q851.25-45 854.51-41.95L854.51-41.95L854.51-41.95Q857.77-38.91 857.77-34.92L857.77-34.92L857.77-34.92Q857.77-29.96 854.61-27.01L854.61-27.01L854.61-27.01Q851.45-24.06 846.91-24.06L846.91-24.06L829.96-24.06" fill="#ff727d" stroke="none" stroke-width="none" transform="translate(-583.1333465576172,24.877896166508744)" style="fill: rgb(144, 255, 181);"></path></g><g class="path" style="transform: scale(1); transform-origin: 255.737px -0.437105px 0px; animation: 2s linear -0.339802s infinite normal forwards running beat-f3664b4e-bacf-43c4-9de5-cb1cd4faa484;"><path d="M829.96-18.44L829.96-21.25L846.91-21.25L846.91-21.25Q852.54-21.25 856.56-25.08L856.56-25.08L856.56-25.08Q860.59-28.91 860.59-34.92L860.59-34.92L860.59-34.92Q860.59-40.04 856.48-43.93L856.48-43.93L856.48-43.93Q852.38-47.81 846.91-47.81L846.91-47.81L817.15-47.81L817.15 0L814.34 0L814.34-50.63L846.91-50.63L846.91-50.63Q853.55-50.63 858.48-45.92L858.48-45.92L858.48-45.92Q863.40-41.21 863.40-34.92L863.40-34.92L863.40-34.92Q863.40-27.89 858.54-23.16L858.54-23.16L858.54-23.16Q853.67-18.44 846.91-18.44L846.91-18.44L829.96-18.44" fill="#ff727d" stroke="none" stroke-width="none" transform="translate(-583.1333465576172,24.877896166508744)" style="fill: rgb(96, 231, 243);"></path></g><g class="path" style="transform: scale(1); transform-origin: 255.732px -3.2471px 0px; animation: 2s linear -0.326733s infinite normal forwards running beat-f3664b4e-bacf-43c4-9de5-cb1cd4faa484;"><path d="M829.96-12.81L829.96-15.63L846.91-15.63L846.91-15.63Q852.11-15.63 856.52-18.13L856.52-18.13L856.52-18.13Q860.94-20.63 863.57-25.08L863.57-25.08L863.57-25.08Q866.21-29.53 866.21-34.92L866.21-34.92L866.21-34.92Q866.21-39.80 863.59-44.08L863.59-44.08L863.59-44.08Q860.98-48.36 856.50-50.90L856.50-50.90L856.50-50.90Q852.03-53.44 846.91-53.44L846.91-53.44L811.52-53.44L811.52 0L808.71 0L808.71-56.25L846.91-56.25L846.91-56.25Q851.33-56.25 855.41-54.51L855.41-54.51L855.41-54.51Q859.49-52.77 862.46-49.90L862.46-49.90L862.46-49.90Q865.43-47.03 867.23-43.09L867.23-43.09L867.23-43.09Q869.02-39.14 869.02-34.92L869.02-34.92L869.02-34.92Q869.02-28.09 865.90-22.99L865.90-22.99L865.90-22.99Q862.77-17.89 857.50-15.23L857.50-15.23L863.40 0L860.39 0L854.80-14.10L854.80-14.10Q853.75-13.75 852.34-13.40L852.34-13.40L857.62 0L854.61 0L849.45-12.93L849.45-12.93Q848.24-12.81 846.91-12.81L846.91-12.81L851.88 0L848.91 0L843.98-12.81L841.45-12.81L846.17 0L843.20 0L838.44-12.81L829.96-12.81" fill="#ff727d" stroke="none" stroke-width="none" transform="translate(-583.1333465576172,24.877896166508744)" style="fill: rgb(255, 114, 125);"></path></g><g class="path" style="transform: scale(1); transform-origin: 255.737px 5.1879px 0px; animation: 2s linear -0.313663s infinite normal forwards running beat-f3664b4e-bacf-43c4-9de5-cb1cd4faa484;"><path d="M828.40-36.56L828.40 0L825.59 0L825.59-39.38L846.91-39.38L846.91-39.38Q849.10-39.38 850.63-38.07L850.63-38.07L850.63-38.07Q852.15-36.76 852.15-34.92L852.15-34.92L852.15-34.92Q852.15-29.69 846.91-29.69L846.91-29.69L829.96-29.69L829.96-32.50L846.91-32.50L846.91-32.50Q849.34-32.50 849.34-34.92L849.34-34.92L849.34-34.92Q849.34-35.59 848.61-36.07L848.61-36.07L848.61-36.07Q847.89-36.56 846.91-36.56L846.91-36.56L828.40-36.56" fill="#ff727d" stroke="none" stroke-width="none" transform="translate(-583.1333465576172,24.877896166508744)" style="fill: rgb(255, 211, 145);"></path></g><g class="path" style="transform: scale(1); transform-origin: 322.257px 2.3779px 0px; animation: 2s linear -0.300594s infinite normal forwards running beat-f3664b4e-bacf-43c4-9de5-cb1cd4faa484;"><path d="M896.48-24.06L896.48-26.88L913.44-26.88L913.44-26.88Q916.80-26.88 919.14-28.98L919.14-28.98L919.14-28.98Q921.48-31.09 921.48-34.92L921.48-34.92L921.48-34.92Q921.48-37.73 919.04-39.96L919.04-39.96L919.04-39.96Q916.60-42.19 913.44-42.19L913.44-42.19L889.30-42.19L889.30 0L886.48 0L886.48-45L913.44-45L913.44-45Q917.77-45 921.04-41.95L921.04-41.95L921.04-41.95Q924.30-38.91 924.30-34.92L924.30-34.92L924.30-34.92Q924.30-29.96 921.13-27.01L921.13-27.01L921.13-27.01Q917.97-24.06 913.44-24.06L913.44-24.06L896.48-24.06" fill="#ff727d" stroke="none" stroke-width="none" transform="translate(-583.1333465576172,24.877896166508744)" style="fill: rgb(255, 251, 208);"></path></g><g class="path" style="transform: scale(1); transform-origin: 322.257px -0.437105px 0px; animation: 2s linear -0.287525s infinite normal forwards running beat-f3664b4e-bacf-43c4-9de5-cb1cd4faa484;"><path d="M896.48-18.44L896.48-21.25L913.44-21.25L913.44-21.25Q919.06-21.25 923.09-25.08L923.09-25.08L923.09-25.08Q927.11-28.91 927.11-34.92L927.11-34.92L927.11-34.92Q927.11-40.04 923.01-43.93L923.01-43.93L923.01-43.93Q918.91-47.81 913.44-47.81L913.44-47.81L883.67-47.81L883.67 0L880.86 0L880.86-50.63L913.44-50.63L913.44-50.63Q920.08-50.63 925-45.92L925-45.92L925-45.92Q929.92-41.21 929.92-34.92L929.92-34.92L929.92-34.92Q929.92-27.89 925.06-23.16L925.06-23.16L925.06-23.16Q920.20-18.44 913.44-18.44L913.44-18.44L896.48-18.44" fill="#ff727d" stroke="none" stroke-width="none" transform="translate(-583.1333465576172,24.877896166508744)" style="fill: rgb(144, 255, 181);"></path></g><g class="path" style="transform: scale(1); transform-origin: 322.257px -3.2471px 0px; animation: 2s linear -0.274455s infinite normal forwards running beat-f3664b4e-bacf-43c4-9de5-cb1cd4faa484;"><path d="M896.48-12.81L896.48-15.63L913.44-15.63L913.44-15.63Q918.63-15.63 923.05-18.13L923.05-18.13L923.05-18.13Q927.46-20.63 930.10-25.08L930.10-25.08L930.10-25.08Q932.73-29.53 932.73-34.92L932.73-34.92L932.73-34.92Q932.73-39.80 930.12-44.08L930.12-44.08L930.12-44.08Q927.50-48.36 923.03-50.90L923.03-50.90L923.03-50.90Q918.55-53.44 913.44-53.44L913.44-53.44L878.05-53.44L878.05 0L875.23 0L875.23-56.25L913.44-56.25L913.44-56.25Q917.85-56.25 921.93-54.51L921.93-54.51L921.93-54.51Q926.02-52.77 928.98-49.90L928.98-49.90L928.98-49.90Q931.95-47.03 933.75-43.09L933.75-43.09L933.75-43.09Q935.55-39.14 935.55-34.92L935.55-34.92L935.55-34.92Q935.55-28.09 932.42-22.99L932.42-22.99L932.42-22.99Q929.30-17.89 924.02-15.23L924.02-15.23L929.92 0L926.91 0L921.33-14.10L921.33-14.10Q920.27-13.75 918.87-13.40L918.87-13.40L924.14 0L921.13 0L915.98-12.93L915.98-12.93Q914.77-12.81 913.44-12.81L913.44-12.81L918.40 0L915.43 0L910.51-12.81L907.97-12.81L912.70 0L909.73 0L904.96-12.81L896.48-12.81" fill="#ff727d" stroke="none" stroke-width="none" transform="translate(-583.1333465576172,24.877896166508744)" style="fill: rgb(96, 231, 243);"></path></g><g class="path" style="transform: scale(1); transform-origin: 322.257px 5.1879px 0px; animation: 2s linear -0.261386s infinite normal forwards running beat-f3664b4e-bacf-43c4-9de5-cb1cd4faa484;"><path d="M894.92-36.56L894.92 0L892.11 0L892.11-39.38L913.44-39.38L913.44-39.38Q915.63-39.38 917.15-38.07L917.15-38.07L917.15-38.07Q918.67-36.76 918.67-34.92L918.67-34.92L918.67-34.92Q918.67-29.69 913.44-29.69L913.44-29.69L896.48-29.69L896.48-32.50L913.44-32.50L913.44-32.50Q915.86-32.50 915.86-34.92L915.86-34.92L915.86-34.92Q915.86-35.59 915.14-36.07L915.14-36.07L915.14-36.07Q914.41-36.56 913.44-36.56L913.44-36.56L894.92-36.56" fill="#ff727d" stroke="none" stroke-width="none" transform="translate(-583.1333465576172,24.877896166508744)" style="fill: rgb(255, 114, 125);"></path></g><g class="path" style="transform: scale(1); transform-origin: 387.687px 4.3679px 0px; animation: 2s linear -0.248317s infinite normal forwards running beat-f3664b4e-bacf-43c4-9de5-cb1cd4faa484;"><path d="M981.68 0L981.68-27.73L981.68-27.73Q981.68-32.73 978.59-35.47L978.59-35.47L978.59-35.47Q975.51-38.20 970.43-38.20L970.43-38.20L970.43-38.20Q966.13-38.20 963.05-35.23L963.05-35.23L963.05-35.23Q959.96-32.27 959.96-28.13L959.96-28.13L959.96-28.13Q959.96-25.78 960.59-23.93L960.59-23.93L960.59-23.93Q961.21-22.07 962.29-20.84L962.29-20.84L962.29-20.84Q963.36-19.61 964.84-18.81L964.84-18.81L964.84-18.81Q966.33-18.01 967.95-17.66L967.95-17.66L967.95-17.66Q969.57-17.30 971.41-17.30L971.41-17.30L971.41-17.30Q975.86-17.30 979.53-19.49L979.53-19.49L979.53-16.68L979.53-16.68Q975.74-14.69 971.37-14.69L971.37-14.69L971.37-14.69Q968.55-14.69 966.07-15.45L966.07-15.45L966.07-15.45Q963.59-16.21 961.56-17.75L961.56-17.75L961.56-17.75Q959.53-19.30 958.34-21.97L958.34-21.97L958.34-21.97Q957.15-24.65 957.15-28.13L957.15-28.13L957.15-28.13Q957.15-33.52 960.94-37.27L960.94-37.27L960.94-37.27Q964.73-41.02 970.43-41.02L970.43-41.02L970.43-41.02Q976.72-41.02 980.61-37.48L980.61-37.48L980.61-37.48Q984.49-33.95 984.49-27.73L984.49-27.73L984.49 0L981.68 0" fill="#ff727d" stroke="none" stroke-width="none" transform="translate(-583.1333465576172,24.877896166508744)" style="fill: rgb(255, 211, 145);"></path></g><g class="path" style="transform: scale(1); transform-origin: 387.687px 1.5579px 0px; animation: 2s linear -0.235248s infinite normal forwards running beat-f3664b4e-bacf-43c4-9de5-cb1cd4faa484;"><path d="M990.12-27.73L990.12-27.73L990.12 0L987.30 0L987.30-27.73L987.30-27.73Q987.30-35.12 982.58-39.47L982.58-39.47L982.58-39.47Q977.85-43.83 970.43-43.83L970.43-43.83L970.43-43.83Q963.55-43.83 958.95-39.26L958.95-39.26L958.95-39.26Q954.34-34.69 954.34-28.13L954.34-28.13L954.34-28.13Q954.34-24.14 955.72-20.98L955.72-20.98L955.72-20.98Q957.11-17.81 959.49-15.90L959.49-15.90L959.49-15.90Q961.88-13.98 964.82-12.99L964.82-12.99L964.82-12.99Q967.77-11.99 971.05-11.99L971.05-11.99L971.05-11.99Q975.51-11.99 979.53-14.06L979.53-14.06L979.53-11.09L979.53-11.09Q975.31-9.34 971.02-9.34L971.02-9.34L971.02-9.34Q967.15-9.34 963.67-10.53L963.67-10.53L963.67-10.53Q960.20-11.72 957.46-14.00L957.46-14.00L957.46-14.00Q954.73-16.29 953.13-19.94L953.13-19.94L953.13-19.94Q951.52-23.59 951.52-28.13L951.52-28.13L951.52-28.13Q951.52-35.82 956.97-41.23L956.97-41.23L956.97-41.23Q962.42-46.64 970.43-46.64L970.43-46.64L970.43-46.64Q976.05-46.64 980.51-44.36L980.51-44.36L980.51-44.36Q984.96-42.07 987.54-37.73L987.54-37.73L987.54-37.73Q990.12-33.40 990.12-27.73" fill="#ff727d" stroke="none" stroke-width="none" transform="translate(-583.1333465576172,24.877896166508744)" style="fill: rgb(255, 251, 208);"></path></g><g class="path" style="transform: scale(1); transform-origin: 387.687px -1.2571px 0px; animation: 2s linear -0.222178s infinite normal forwards running beat-f3664b4e-bacf-43c4-9de5-cb1cd4faa484;"><path d="M995.74-27.73L995.74-27.73L995.74 0L992.93 0L992.93-27.73L992.93-27.73Q992.93-34.18 989.98-39.16L989.98-39.16L989.98-39.16Q987.03-44.14 981.91-46.80L981.91-46.80L981.91-46.80Q976.80-49.45 970.43-49.45L970.43-49.45L970.43-49.45Q964.38-49.45 959.38-46.58L959.38-46.58L959.38-46.58Q954.38-43.71 951.54-38.83L951.54-38.83L951.54-38.83Q948.71-33.95 948.71-28.13L948.71-28.13L948.71-28.13Q948.71-23.13 950.55-19.00L950.55-19.00L950.55-19.00Q952.38-14.88 955.49-12.23L955.49-12.23L955.49-12.23Q958.59-9.57 962.56-8.11L962.56-8.11L962.56-8.11Q966.52-6.64 970.86-6.64L970.86-6.64L970.86-6.64Q975.27-6.64 979.53-8.48L979.53-8.48L979.53-5.63L979.53-5.63Q975.08-3.95 970.78-3.95L970.78-3.95L970.78-3.95Q964.02-3.95 958.36-6.99L958.36-6.99L958.36-6.99Q952.70-10.04 949.30-15.63L949.30-15.63L949.30-15.63Q945.90-21.21 945.90-28.13L945.90-28.13L945.90-28.13Q945.90-33.05 947.79-37.50L947.79-37.50L947.79-37.50Q949.69-41.95 952.93-45.20L952.93-45.20L952.93-45.20Q956.17-48.44 960.74-50.35L960.74-50.35L960.74-50.35Q965.31-52.27 970.43-52.27L970.43-52.27L970.43-52.27Q977.58-52.27 983.34-49.22L983.34-49.22L983.34-49.22Q989.10-46.17 992.42-40.55L992.42-40.55L992.42-40.55Q995.74-34.92 995.74-27.73" fill="#ff727d" stroke="none" stroke-width="none" transform="translate(-583.1333465576172,24.877896166508744)" style="fill: rgb(144, 255, 181);"></path></g><g class="path" style="transform: scale(1); transform-origin: 387.687px -3.3071px 0px; animation: 2s linear -0.209109s infinite normal forwards running beat-f3664b4e-bacf-43c4-9de5-cb1cd4faa484;"><path d="M1001.37-27.73L1001.37-27.73L1001.37 0L998.55 0L998.55-27.73L998.55-27.73Q998.55-35.70 994.84-41.97L994.84-41.97L994.84-41.97Q991.13-48.24 984.73-51.66L984.73-51.66L984.73-51.66Q978.32-55.08 970.43-55.08L970.43-55.08L970.43-55.08Q962.85-55.08 956.56-51.45L956.56-51.45L956.56-51.45Q950.27-47.81 946.68-41.62L946.68-41.62L946.68-41.62Q943.09-35.43 943.09-28.13L943.09-28.13L943.09-28.13Q943.09-23.32 944.63-19.00L944.63-19.00L944.63-19.00Q946.17-14.69 948.85-11.46L948.85-11.46L948.85-11.46Q951.52-8.24 955.02-5.90L955.02-5.90L955.02-5.90Q958.52-3.55 962.56-2.34L962.56-2.34L962.56-2.34Q966.60-1.13 970.78-1.13L970.78-1.13L970.78-1.13Q975.39-1.13 979.53-2.89L979.53-2.89L979.53 0L979.53 0Q975.20 1.52 970.63 1.52L970.63 1.52L970.63 1.52Q965.90 1.52 961.43 0.20L961.43 0.20L961.43 0.20Q956.95-1.13 953.14-3.73L953.14-3.73L953.14-3.73Q949.34-6.33 946.45-9.86L946.45-9.86L946.45-9.86Q943.55-13.40 941.91-18.13L941.91-18.13L941.91-18.13Q940.27-22.85 940.27-28.13L940.27-28.13L940.27-28.13Q940.27-34.18 942.56-39.67L942.56-39.67L942.56-39.67Q944.84-45.16 948.81-49.16L948.81-49.16L948.81-49.16Q952.77-53.16 958.42-55.53L958.42-55.53L958.42-55.53Q964.06-57.89 970.43-57.89L970.43-57.89L970.43-57.89Q976.91-57.89 982.62-55.70L982.62-55.70L982.62-55.70Q988.32-53.52 992.46-49.63L992.46-49.63L992.46-49.63Q996.60-45.74 998.98-40.08L998.98-40.08L998.98-40.08Q1001.37-34.41 1001.37-27.73" fill="#ff727d" stroke="none" stroke-width="none" transform="translate(-583.1333465576172,24.877896166508744)" style="fill: rgb(96, 231, 243);"></path></g><g class="path" style="transform: scale(1); transform-origin: 453.312px 2.3779px 0px; animation: 2s linear -0.19604s infinite normal forwards running beat-f3664b4e-bacf-43c4-9de5-cb1cd4faa484;"><path d="M1030.16-23.67L1030.16-26.48L1042.07-26.48L1042.07-26.48Q1045.59-26.48 1048.05-28.59L1048.05-28.59L1048.05-28.59Q1050.51-30.70 1050.51-34.53L1050.51-34.53L1050.51-34.53Q1050.51-37.50 1047.93-39.84L1047.93-39.84L1047.93-39.84Q1045.35-42.19 1042.07-42.19L1042.07-42.19L1022.38-42.19L1022.38 0L1019.57 0L1019.57-45L1042.07-45L1042.07-45Q1046.56-45 1049.94-41.84L1049.94-41.84L1049.94-41.84Q1053.32-38.67 1053.32-34.53L1053.32-34.53L1053.32-34.53Q1053.32-29.57 1050.04-26.62L1050.04-26.62L1050.04-26.62Q1046.76-23.67 1042.07-23.67L1042.07-23.67L1030.16-23.67" fill="#ff727d" stroke="none" stroke-width="none" transform="translate(-583.1333465576172,24.877896166508744)" style="fill: rgb(255, 114, 125);"></path></g><g class="path" style="transform: scale(1); transform-origin: 453.317px -0.437105px 0px; animation: 2s linear -0.18297s infinite normal forwards running beat-f3664b4e-bacf-43c4-9de5-cb1cd4faa484;"><path d="M1030.16-18.05L1030.16-20.86L1042.07-20.86L1042.07-20.86Q1047.85-20.86 1051.99-24.69L1051.99-24.69L1051.99-24.69Q1056.13-28.52 1056.13-34.53L1056.13-34.53L1056.13-34.53Q1056.13-39.80 1051.91-43.81L1051.91-43.81L1051.91-43.81Q1047.70-47.81 1042.07-47.81L1042.07-47.81L1016.76-47.81L1016.76 0L1013.95 0L1013.95-50.63L1042.07-50.63L1042.07-50.63Q1048.87-50.63 1053.91-45.80L1053.91-45.80L1053.91-45.80Q1058.95-40.98 1058.95-34.53L1058.95-34.53L1058.95-34.53Q1058.95-27.50 1053.96-22.77L1053.96-22.77L1053.96-22.77Q1048.98-18.05 1042.07-18.05L1042.07-18.05L1030.16-18.05" fill="#ff727d" stroke="none" stroke-width="none" transform="translate(-583.1333465576172,24.877896166508744)" style="fill: rgb(255, 211, 145);"></path></g><g class="path" style="transform: scale(1); transform-origin: 453.312px -3.2471px 0px; animation: 2s linear -0.169901s infinite normal forwards running beat-f3664b4e-bacf-43c4-9de5-cb1cd4faa484;"><path d="M1030.16-12.42L1030.16-15.23L1042.07-15.23L1042.07-15.23Q1047.34-15.23 1051.86-17.73L1051.86-17.73L1051.86-17.73Q1056.37-20.23 1059.06-24.69L1059.06-24.69L1059.06-24.69Q1061.76-29.14 1061.76-34.53L1061.76-34.53L1061.76-34.53Q1061.76-39.49 1059.08-43.87L1059.08-43.87L1059.08-43.87Q1056.41-48.24 1051.86-50.84L1051.86-50.84L1051.86-50.84Q1047.30-53.44 1042.07-53.44L1042.07-53.44L1011.13-53.44L1011.13 0L1008.32 0L1008.32-56.25L1042.07-56.25L1042.07-56.25Q1046.52-56.25 1050.68-54.49L1050.68-54.49L1050.68-54.49Q1054.84-52.73 1057.89-49.79L1057.89-49.79L1057.89-49.79Q1060.94-46.84 1062.75-42.83L1062.75-42.83L1062.75-42.83Q1064.57-38.83 1064.57-34.53L1064.57-34.53L1064.57-34.53Q1064.57-29.49 1062.77-25.27L1062.77-25.27L1062.77-25.27Q1060.98-21.05 1057.89-18.26L1057.89-18.26L1057.89-18.26Q1054.80-15.47 1050.72-13.95L1050.72-13.95L1050.72-13.95Q1046.64-12.42 1042.07-12.42L1042.07-12.42L1030.16-12.42" fill="#ff727d" stroke="none" stroke-width="none" transform="translate(-583.1333465576172,24.877896166508744)" style="fill: rgb(255, 251, 208);"></path></g><g class="path" style="transform: scale(1); transform-origin: 453.317px 5.1879px 0px; animation: 2s linear -0.156832s infinite normal forwards running beat-f3664b4e-bacf-43c4-9de5-cb1cd4faa484;"><path d="M1028.01-36.56L1028.01 0L1025.20 0L1025.20-39.38L1042.07-39.38L1042.07-39.38Q1044.38-39.38 1046.04-37.95L1046.04-37.95L1046.04-37.95Q1047.70-36.52 1047.70-34.53L1047.70-34.53L1047.70-34.53Q1047.70-29.30 1042.07-29.30L1042.07-29.30L1030.16-29.30L1030.16-32.11L1042.07-32.11L1042.07-32.11Q1044.88-32.11 1044.88-34.53L1044.88-34.53L1044.88-34.53Q1044.88-35.39 1044.06-35.98L1044.06-35.98L1044.06-35.98Q1043.24-36.56 1042.07-36.56L1042.07-36.56L1028.01-36.56" fill="#ff727d" stroke="none" stroke-width="none" transform="translate(-583.1333465576172,24.877896166508744)" style="fill: rgb(144, 255, 181);"></path></g><g class="path" style="transform: scale(1); transform-origin: 506.007px -3.2471px 0px; animation: 2s linear -0.143762s infinite normal forwards running beat-f3664b4e-bacf-43c4-9de5-cb1cd4faa484;"><path d="M1087.73 0L1087.73-56.25L1090.55-56.25L1090.55 0L1087.73 0" fill="#ff727d" stroke="none" stroke-width="none" transform="translate(-583.1333465576172,24.877896166508744)" style="fill: rgb(96, 231, 243);"></path></g><g class="path" style="transform: scale(1); transform-origin: 500.382px -3.2471px 0px; animation: 2s linear -0.130693s infinite normal forwards running beat-f3664b4e-bacf-43c4-9de5-cb1cd4faa484;"><path d="M1082.11 0L1082.11-56.25L1084.92-56.25L1084.92 0L1082.11 0" fill="#ff727d" stroke="none" stroke-width="none" transform="translate(-583.1333465576172,24.877896166508744)" style="fill: rgb(255, 114, 125);"></path></g><g class="path" style="transform: scale(1); transform-origin: 494.757px -3.2471px 0px; animation: 2s linear -0.117624s infinite normal forwards running beat-f3664b4e-bacf-43c4-9de5-cb1cd4faa484;"><path d="M1076.48 0L1076.48-56.25L1079.30-56.25L1079.30 0L1076.48 0" fill="#ff727d" stroke="none" stroke-width="none" transform="translate(-583.1333465576172,24.877896166508744)" style="fill: rgb(255, 211, 145);"></path></g><g class="path" style="transform: scale(1); transform-origin: 489.132px -3.2471px 0px; animation: 2s linear -0.104554s infinite normal forwards running beat-f3664b4e-bacf-43c4-9de5-cb1cd4faa484;"><path d="M1070.86 0L1070.86-56.25L1073.67-56.25L1073.67 0L1070.86 0" fill="#ff727d" stroke="none" stroke-width="none" transform="translate(-583.1333465576172,24.877896166508744)" style="fill: rgb(255, 251, 208);"></path></g><g class="path" style="transform: scale(1); transform-origin: 542.687px -3.2471px 0px; animation: 2s linear -0.0914852s infinite normal forwards running beat-f3664b4e-bacf-43c4-9de5-cb1cd4faa484;"><path d="M1138.36-36.88L1138.36-36.88L1136.09-35.16L1136.09-35.16Q1132.70-39.38 1127.34-39.38L1127.34-39.38L1127.34-39.38Q1122.70-39.38 1119.39-36.07L1119.39-36.07L1119.39-36.07Q1116.09-32.77 1116.09-28.13L1116.09-28.13L1116.09-28.13Q1116.09-23.48 1119.39-20.18L1119.39-20.18L1119.39-20.18Q1122.70-16.88 1127.34-16.88L1127.34-16.88L1127.34-16.88Q1129.96-16.88 1132.25-18.01L1132.25-18.01L1132.25-18.01Q1134.53-19.14 1136.13-21.13L1136.13-21.13L1138.32-19.30L1138.32-19.30Q1136.37-16.84 1133.48-15.45L1133.48-15.45L1133.48-15.45Q1130.59-14.06 1127.34-14.06L1127.34-14.06L1127.34-14.06Q1121.52-14.06 1117.40-18.18L1117.40-18.18L1117.40-18.18Q1113.28-22.30 1113.28-28.13L1113.28-28.13L1113.28-28.13Q1113.28-33.95 1117.40-38.07L1117.40-38.07L1117.40-38.07Q1121.52-42.19 1127.34-42.19L1127.34-42.19L1127.34-42.19Q1130.63-42.19 1133.52-40.76L1133.52-40.76L1133.52-40.76Q1136.41-39.34 1138.36-36.88" fill="#ff727d" stroke="none" stroke-width="none" transform="translate(-583.1333465576172,24.877896166508744)" style="fill: rgb(144, 255, 181);"></path></g><g class="path" style="transform: scale(1); transform-origin: 542.062px -3.2471px 0px; animation: 2s linear -0.0784158s infinite normal forwards running beat-f3664b4e-bacf-43c4-9de5-cb1cd4faa484;"><path d="M1142.73-40.39L1142.73-40.39L1140.51-38.67L1140.51-38.67Q1138.16-41.64 1134.71-43.32L1134.71-43.32L1134.71-43.32Q1131.25-45 1127.34-45L1127.34-45L1127.34-45Q1120.35-45 1115.41-40.04L1115.41-40.04L1115.41-40.04Q1110.47-35.08 1110.47-28.13L1110.47-28.13L1110.47-28.13Q1110.47-21.17 1115.41-16.21L1115.41-16.21L1115.41-16.21Q1120.35-11.25 1127.34-11.25L1127.34-11.25L1127.34-11.25Q1131.25-11.25 1134.73-12.95L1134.73-12.95L1134.73-12.95Q1138.20-14.65 1140.55-17.62L1140.55-17.62L1142.70-15.82L1142.70-15.82Q1139.96-12.38 1135.94-10.41L1135.94-10.41L1135.94-10.41Q1131.91-8.44 1127.34-8.44L1127.34-8.44L1127.34-8.44Q1121.99-8.44 1117.46-11.07L1117.46-11.07L1117.46-11.07Q1112.93-13.71 1110.29-18.24L1110.29-18.24L1110.29-18.24Q1107.66-22.77 1107.66-28.13L1107.66-28.13L1107.66-28.13Q1107.66-33.48 1110.29-38.01L1110.29-38.01L1110.29-38.01Q1112.93-42.54 1117.46-45.18L1117.46-45.18L1117.46-45.18Q1121.99-47.81 1127.34-47.81L1127.34-47.81L1127.34-47.81Q1131.91-47.81 1135.96-45.84L1135.96-45.84L1135.96-45.84Q1140-43.87 1142.73-40.39" fill="#ff727d" stroke="none" stroke-width="none" transform="translate(-583.1333465576172,24.877896166508744)" style="fill: rgb(96, 231, 243);"></path></g><g class="path" style="transform: scale(1); transform-origin: 541.457px -3.2471px 0px; animation: 2s linear -0.0653465s infinite normal forwards running beat-f3664b4e-bacf-43c4-9de5-cb1cd4faa484;"><path d="M1147.15-43.91L1147.15-43.91L1144.96-42.15L1144.96-42.15Q1141.80-46.09 1137.19-48.36L1137.19-48.36L1137.19-48.36Q1132.58-50.63 1127.34-50.63L1127.34-50.63L1127.34-50.63Q1122.77-50.63 1118.61-48.85L1118.61-48.85L1118.61-48.85Q1114.45-47.07 1111.43-44.04L1111.43-44.04L1111.43-44.04Q1108.40-41.02 1106.62-36.86L1106.62-36.86L1106.62-36.86Q1104.84-32.70 1104.84-28.13L1104.84-28.13L1104.84-28.13Q1104.84-23.55 1106.62-19.39L1106.62-19.39L1106.62-19.39Q1108.40-15.23 1111.43-12.21L1111.43-12.21L1111.43-12.21Q1114.45-9.18 1118.61-7.40L1118.61-7.40L1118.61-7.40Q1122.77-5.63 1127.34-5.63L1127.34-5.63L1127.34-5.63Q1132.58-5.63 1137.19-7.89L1137.19-7.89L1137.19-7.89Q1141.80-10.16 1144.96-14.10L1144.96-14.10L1147.07-12.27L1147.07-12.27Q1143.52-7.85 1138.36-5.33L1138.36-5.33L1138.36-5.33Q1133.20-2.81 1127.34-2.81L1127.34-2.81L1127.34-2.81Q1122.19-2.81 1117.50-4.82L1117.50-4.82L1117.50-4.82Q1112.81-6.84 1109.43-10.21L1109.43-10.21L1109.43-10.21Q1106.05-13.59 1104.04-18.28L1104.04-18.28L1104.04-18.28Q1102.03-22.97 1102.03-28.13L1102.03-28.13L1102.03-28.13Q1102.03-33.28 1104.04-37.97L1104.04-37.97L1104.04-37.97Q1106.05-42.66 1109.43-46.04L1109.43-46.04L1109.43-46.04Q1112.81-49.41 1117.50-51.43L1117.50-51.43L1117.50-51.43Q1122.19-53.44 1127.34-53.44L1127.34-53.44L1127.34-53.44Q1133.24-53.44 1138.42-50.90L1138.42-50.90L1138.42-50.90Q1143.59-48.36 1147.15-43.91" fill="#ff727d" stroke="none" stroke-width="none" transform="translate(-583.1333465576172,24.877896166508744)" style="fill: rgb(255, 114, 125);"></path></g><g class="path" style="transform: scale(1); transform-origin: 540.832px -3.2471px 0px; animation: 2s linear -0.0522772s infinite normal forwards running beat-f3664b4e-bacf-43c4-9de5-cb1cd4faa484;"><path d="M1151.52-47.42L1151.52-47.42L1149.26-45.74L1149.26-45.74Q1145.31-50.63 1139.59-53.44L1139.59-53.44L1139.59-53.44Q1133.87-56.25 1127.34-56.25L1127.34-56.25L1127.34-56.25Q1121.64-56.25 1116.43-54.02L1116.43-54.02L1116.43-54.02Q1111.21-51.80 1107.44-48.03L1107.44-48.03L1107.44-48.03Q1103.67-44.26 1101.45-39.04L1101.45-39.04L1101.45-39.04Q1099.22-33.83 1099.22-28.13L1099.22-28.13L1099.22-28.13Q1099.22-22.42 1101.45-17.21L1101.45-17.21L1101.45-17.21Q1103.67-11.99 1107.44-8.22L1107.44-8.22L1107.44-8.22Q1111.21-4.45 1116.43-2.23L1116.43-2.23L1116.43-2.23Q1121.64 0 1127.34 0L1127.34 0L1127.34 0Q1133.87 0 1139.59-2.81L1139.59-2.81L1139.59-2.81Q1145.31-5.63 1149.26-10.51L1149.26-10.51L1151.48-8.79L1151.48-8.79Q1147.15-3.40 1140.84-0.29L1140.84-0.29L1140.84-0.29Q1134.53 2.81 1127.34 2.81L1127.34 2.81L1127.34 2.81Q1121.05 2.81 1115.33 0.35L1115.33 0.35L1115.33 0.35Q1109.61-2.11 1105.47-6.25L1105.47-6.25L1105.47-6.25Q1101.33-10.39 1098.87-16.11L1098.87-16.11L1098.87-16.11Q1096.41-21.84 1096.41-28.13L1096.41-28.13L1096.41-28.13Q1096.41-34.41 1098.87-40.14L1098.87-40.14L1098.87-40.14Q1101.33-45.86 1105.47-50L1105.47-50L1105.47-50Q1109.61-54.14 1115.33-56.60L1115.33-56.60L1115.33-56.60Q1121.05-59.06 1127.34-59.06L1127.34-59.06L1127.34-59.06Q1134.53-59.06 1140.86-55.96L1140.86-55.96L1140.86-55.96Q1147.19-52.85 1151.52-47.42" fill="#ff727d" stroke="none" stroke-width="none" transform="translate(-583.1333465576172,24.877896166508744)" style="fill: rgb(255, 211, 145);"></path></g><g class="path" style="transform: scale(1); transform-origin: 602.767px 4.3679px 0px; animation: 2s linear -0.0392079s infinite normal forwards running beat-f3664b4e-bacf-43c4-9de5-cb1cd4faa484;"><path d="M1196.76 0L1196.76-27.73L1196.76-27.73Q1196.76-32.73 1193.67-35.47L1193.67-35.47L1193.67-35.47Q1190.59-38.20 1185.51-38.20L1185.51-38.20L1185.51-38.20Q1181.21-38.20 1178.13-35.23L1178.13-35.23L1178.13-35.23Q1175.04-32.27 1175.04-28.13L1175.04-28.13L1175.04-28.13Q1175.04-25.78 1175.66-23.93L1175.66-23.93L1175.66-23.93Q1176.29-22.07 1177.36-20.84L1177.36-20.84L1177.36-20.84Q1178.44-19.61 1179.92-18.81L1179.92-18.81L1179.92-18.81Q1181.41-18.01 1183.03-17.66L1183.03-17.66L1183.03-17.66Q1184.65-17.30 1186.48-17.30L1186.48-17.30L1186.48-17.30Q1190.94-17.30 1194.61-19.49L1194.61-19.49L1194.61-16.68L1194.61-16.68Q1190.82-14.69 1186.45-14.69L1186.45-14.69L1186.45-14.69Q1183.63-14.69 1181.15-15.45L1181.15-15.45L1181.15-15.45Q1178.67-16.21 1176.64-17.75L1176.64-17.75L1176.64-17.75Q1174.61-19.30 1173.42-21.97L1173.42-21.97L1173.42-21.97Q1172.23-24.65 1172.23-28.13L1172.23-28.13L1172.23-28.13Q1172.23-33.52 1176.02-37.27L1176.02-37.27L1176.02-37.27Q1179.80-41.02 1185.51-41.02L1185.51-41.02L1185.51-41.02Q1191.80-41.02 1195.68-37.48L1195.68-37.48L1195.68-37.48Q1199.57-33.95 1199.57-27.73L1199.57-27.73L1199.57 0L1196.76 0" fill="#ff727d" stroke="none" stroke-width="none" transform="translate(-583.1333465576172,24.877896166508744)" style="fill: rgb(255, 251, 208);"></path></g><g class="path" style="transform: scale(1); transform-origin: 602.767px 1.5579px 0px; animation: 2s linear -0.0261386s infinite normal forwards running beat-f3664b4e-bacf-43c4-9de5-cb1cd4faa484;"><path d="M1205.20-27.73L1205.20-27.73L1205.20 0L1202.38 0L1202.38-27.73L1202.38-27.73Q1202.38-35.12 1197.66-39.47L1197.66-39.47L1197.66-39.47Q1192.93-43.83 1185.51-43.83L1185.51-43.83L1185.51-43.83Q1178.63-43.83 1174.02-39.26L1174.02-39.26L1174.02-39.26Q1169.41-34.69 1169.41-28.13L1169.41-28.13L1169.41-28.13Q1169.41-24.14 1170.80-20.98L1170.80-20.98L1170.80-20.98Q1172.19-17.81 1174.57-15.90L1174.57-15.90L1174.57-15.90Q1176.95-13.98 1179.90-12.99L1179.90-12.99L1179.90-12.99Q1182.85-11.99 1186.13-11.99L1186.13-11.99L1186.13-11.99Q1190.59-11.99 1194.61-14.06L1194.61-14.06L1194.61-11.09L1194.61-11.09Q1190.39-9.34 1186.09-9.34L1186.09-9.34L1186.09-9.34Q1182.23-9.34 1178.75-10.53L1178.75-10.53L1178.75-10.53Q1175.27-11.72 1172.54-14.00L1172.54-14.00L1172.54-14.00Q1169.80-16.29 1168.20-19.94L1168.20-19.94L1168.20-19.94Q1166.60-23.59 1166.60-28.13L1166.60-28.13L1166.60-28.13Q1166.60-35.82 1172.05-41.23L1172.05-41.23L1172.05-41.23Q1177.50-46.64 1185.51-46.64L1185.51-46.64L1185.51-46.64Q1191.13-46.64 1195.59-44.36L1195.59-44.36L1195.59-44.36Q1200.04-42.07 1202.62-37.73L1202.62-37.73L1202.62-37.73Q1205.20-33.40 1205.20-27.73" fill="#ff727d" stroke="none" stroke-width="none" transform="translate(-583.1333465576172,24.877896166508744)" style="fill: rgb(144, 255, 181);"></path></g><g class="path" style="transform: scale(1); transform-origin: 602.767px -1.2571px 0px; animation: 2s linear -0.0130693s infinite normal forwards running beat-f3664b4e-bacf-43c4-9de5-cb1cd4faa484;"><path d="M1210.82-27.73L1210.82-27.73L1210.82 0L1208.01 0L1208.01-27.73L1208.01-27.73Q1208.01-34.18 1205.06-39.16L1205.06-39.16L1205.06-39.16Q1202.11-44.14 1196.99-46.80L1196.99-46.80L1196.99-46.80Q1191.88-49.45 1185.51-49.45L1185.51-49.45L1185.51-49.45Q1179.45-49.45 1174.45-46.58L1174.45-46.58L1174.45-46.58Q1169.45-43.71 1166.62-38.83L1166.62-38.83L1166.62-38.83Q1163.79-33.95 1163.79-28.13L1163.79-28.13L1163.79-28.13Q1163.79-23.13 1165.63-19.00L1165.63-19.00L1165.63-19.00Q1167.46-14.88 1170.57-12.23L1170.57-12.23L1170.57-12.23Q1173.67-9.57 1177.64-8.11L1177.64-8.11L1177.64-8.11Q1181.60-6.64 1185.94-6.64L1185.94-6.64L1185.94-6.64Q1190.35-6.64 1194.61-8.48L1194.61-8.48L1194.61-5.63L1194.61-5.63Q1190.16-3.95 1185.86-3.95L1185.86-3.95L1185.86-3.95Q1179.10-3.95 1173.44-6.99L1173.44-6.99L1173.44-6.99Q1167.77-10.04 1164.38-15.63L1164.38-15.63L1164.38-15.63Q1160.98-21.21 1160.98-28.13L1160.98-28.13L1160.98-28.13Q1160.98-33.05 1162.87-37.50L1162.87-37.50L1162.87-37.50Q1164.77-41.95 1168.01-45.20L1168.01-45.20L1168.01-45.20Q1171.25-48.44 1175.82-50.35L1175.82-50.35L1175.82-50.35Q1180.39-52.27 1185.51-52.27L1185.51-52.27L1185.51-52.27Q1192.66-52.27 1198.42-49.22L1198.42-49.22L1198.42-49.22Q1204.18-46.17 1207.50-40.55L1207.50-40.55L1207.50-40.55Q1210.82-34.92 1210.82-27.73" fill="#ff727d" stroke="none" stroke-width="none" transform="translate(-583.1333465576172,24.877896166508744)" style="fill: rgb(96, 231, 243);"></path></g><g class="path" style="transform: scale(1); transform-origin: 602.767px -3.3071px 0px; animation: 2s linear 0s infinite normal forwards running beat-f3664b4e-bacf-43c4-9de5-cb1cd4faa484;"><path d="M1216.45-27.73L1216.45-27.73L1216.45 0L1213.63 0L1213.63-27.73L1213.63-27.73Q1213.63-35.70 1209.92-41.97L1209.92-41.97L1209.92-41.97Q1206.21-48.24 1199.80-51.66L1199.80-51.66L1199.80-51.66Q1193.40-55.08 1185.51-55.08L1185.51-55.08L1185.51-55.08Q1177.93-55.08 1171.64-51.45L1171.64-51.45L1171.64-51.45Q1165.35-47.81 1161.76-41.62L1161.76-41.62L1161.76-41.62Q1158.16-35.43 1158.16-28.13L1158.16-28.13L1158.16-28.13Q1158.16-23.32 1159.71-19.00L1159.71-19.00L1159.71-19.00Q1161.25-14.69 1163.93-11.46L1163.93-11.46L1163.93-11.46Q1166.60-8.24 1170.10-5.90L1170.10-5.90L1170.10-5.90Q1173.59-3.55 1177.64-2.34L1177.64-2.34L1177.64-2.34Q1181.68-1.13 1185.86-1.13L1185.86-1.13L1185.86-1.13Q1190.47-1.13 1194.61-2.89L1194.61-2.89L1194.61 0L1194.61 0Q1190.27 1.52 1185.70 1.52L1185.70 1.52L1185.70 1.52Q1180.98 1.52 1176.50 0.20L1176.50 0.20L1176.50 0.20Q1172.03-1.13 1168.22-3.73L1168.22-3.73L1168.22-3.73Q1164.41-6.33 1161.52-9.86L1161.52-9.86L1161.52-9.86Q1158.63-13.40 1156.99-18.13L1156.99-18.13L1156.99-18.13Q1155.35-22.85 1155.35-28.13L1155.35-28.13L1155.35-28.13Q1155.35-34.18 1157.64-39.67L1157.64-39.67L1157.64-39.67Q1159.92-45.16 1163.89-49.16L1163.89-49.16L1163.89-49.16Q1167.85-53.16 1173.50-55.53L1173.50-55.53L1173.50-55.53Q1179.14-57.89 1185.51-57.89L1185.51-57.89L1185.51-57.89Q1191.99-57.89 1197.70-55.70L1197.70-55.70L1197.70-55.70Q1203.40-53.52 1207.54-49.63L1207.54-49.63L1207.54-49.63Q1211.68-45.74 1214.06-40.08L1214.06-40.08L1214.06-40.08Q1216.45-34.41 1216.45-27.73" fill="#ff727d" stroke="none" stroke-width="none" transform="translate(-583.1333465576172,24.877896166508744)" style="fill: rgb(255, 114, 125);"></path></g></g>
</g>
</g>
<style id="beat-f3664b4e-bacf-43c4-9de5-cb1cd4faa484" data-anikit="">@keyframes beat-f3664b4e-bacf-43c4-9de5-cb1cd4faa484
{
  0% {
    animation-timing-function: cubic-bezier(0.1028,0.2484,0.1372,0.849);
    transform: scale(1);
  }
  34% {
    animation-timing-function: cubic-bezier(0.7116,0.2095,0.8159,0.6876);
    transform: scale(1.2);
  }
  68% {
    animation-timing-function: cubic-bezier(0.1475,0.2888,0.294,0.883);
    transform: scale(1.0268);
  }
  84% {
    animation-timing-function: cubic-bezier(0.8176,0.2193,0.867,0.6889);
    transform: scale(1.0932);
  }
  100% {
    transform: scale(1);
  }
}</style><style id="beat-f3664b4e-bacf-43c4-9de5-cb1cd4faa484" data-anikit="">@keyframes beat-f3664b4e-bacf-43c4-9de5-cb1cd4faa484
{
  0% {
    animation-timing-function: cubic-bezier(0.1028,0.2484,0.1372,0.849);
    transform: scale(1);
  }
  34% {
    animation-timing-function: cubic-bezier(0.7116,0.2095,0.8159,0.6876);
    transform: scale(1.2);
  }
  68% {
    animation-timing-function: cubic-bezier(0.1475,0.2888,0.294,0.883);
    transform: scale(1.0268);
  }
  84% {
    animation-timing-function: cubic-bezier(0.8176,0.2193,0.867,0.6889);
    transform: scale(1.0932);
  }
  100% {
    transform: scale(1);
  }
}</style></svg>